<?xml version="1.0" encoding="UTF-8" standalone="no"?>
<!-- Created with Inkscape (http://www.inkscape.org/) -->

<svg
   xmlns:dc="http://purl.org/dc/elements/1.1/"
   xmlns:cc="http://creativecommons.org/ns#"
   xmlns:rdf="http://www.w3.org/1999/02/22-rdf-syntax-ns#"
   xmlns:svg="http://www.w3.org/2000/svg"
   xmlns="http://www.w3.org/2000/svg"
   xmlns:xlink="http://www.w3.org/1999/xlink"
   xmlns:sodipodi="http://sodipodi.sourceforge.net/DTD/sodipodi-0.dtd"
   xmlns:inkscape="http://www.inkscape.org/namespaces/inkscape"
   id="svg2"
   version="1.1"
   inkscape:version="0.48.4 r9939"
   width="398"
   height="208"
   sodipodi:docname="ggjberlin2014.svg"
   inkscape:export-filename="./ggjberlin2014preview.png"
   inkscape:export-xdpi="180"
   inkscape:export-ydpi="180">
  <metadata
     id="metadata8">
    <rdf:RDF>
      <cc:Work
         rdf:about="">
        <dc:format>image/svg+xml</dc:format>
        <dc:type
           rdf:resource="http://purl.org/dc/dcmitype/StillImage" />
        <dc:title></dc:title>
      </cc:Work>
    </rdf:RDF>
  </metadata>
  <defs
     id="defs6">
    <inkscape:perspective
       sodipodi:type="inkscape:persp3d"
       inkscape:vp_x="0 : 1850.6865 : 1"
       inkscape:vp_y="0 : 1000 : 0"
       inkscape:vp_z="5048.2329 : 1850.6865 : 1"
       inkscape:persp3d-origin="2524.1165 : 1233.791 : 1"
       id="perspective540" />
    <path
       id="Schnittmaske"
       d="m 1845.815,3094.159 -66,-57.5 0,-44.5 -115.5,78.5 -55,37 -34.5,32.5 -18,-26 -102,-135 7,-5.5 2.5,-7.5 -4.5,-6.5 -45.5,46 -48,50 -28.5,26.5 -29.5,17 -28.5,5.5 -17,0 -18,-3 -21.5,-11.5 -15.5,-4.5 -22.5,0 -39,19.5 -0.5,-7 c 0,0 -0.5,-14.5 -0.5,-16.5 0,-2 -5.5,-15.5 -5.5,-15.5 l -1,-18 c 0,0 -2,-26 -2,-27.5 0,-1.5 -7,-29 -7,-29 l -8,-25.5 -1,-18.5 -10.5,-21.5 -35,6 c 0,0 -33.5,1 -35,1 -1.5,0 -15,5.5 -15,5.5 l -58,-4.5 -27,14.5 -29.5,15 -43,25 -47.5,14 -26,6.5 -16.5,1 -25.5,18.5 -219,131.5 0,21 -2,23 -6.5,33 7.5,-1 33,-7 21.5,-5 31,-9.5 3,23 -21.5,16.5 -30,3.5 -39.5,5.5 -28.5,-9 -21.5,-2.5 -29.5,-1.5 -23,-9 -3,-7.5 -22,15.5 -23.5,23.5 -22.5,26 -9.5,14.5 c 0,0 10,11 12.5,12 2.5,1 8,11 8,11 l -2.5,11.5 -14,1 -20.5,-12.5 c 0,0 -11,-9 -11,-10.5 0,-1.5 3.5,-24 3.5,-24 l 5.5,-5.5 20.5,-2 11.5,-12.5 c 0,0 18,-18 18.5,-19.5 0.5,-1.5 16.5,-17.5 16.5,-17.5 l -17.5,1 -2,-4 -4.5,-8 21.5,-8 -32.5,-12.5 -4.5,3 -6,9.5 -10,10 -14,6 -13.5,6 c 0,0 -12,-7 -13.5,-7.5 -1.5,-0.5 -14,-9.5 -14,-9.5 l -13,-19 -16,-19 -6.5,-6 -11.5,-5 -20,-6 -13.5,-13 -2,-10.5 -10.5,-12.5 -7,-5.5 1.5,-3 7,-7.5 -7,-5 -13.5,0 2,-8 5,-8.5 7,-9 6,-13 -0.5,-8 -20,-7.5 -2.892,9.074 3,19.5 -4.5,10.5 -13.5,-1.5 -20.999,0 0,-15 -3,-18 -6,-2.998 -22.499,10.498 3,10.5 13.5,12 0,8.998 -14.999,6 -9,-8.998 -19.499,-4.5 c 0,0 -12,-3 -16.5,-7.5 -4.5,-4.5 1.5,-19.5 1.5,-19.5 l -6,-17.998 -3,-22.5 -12,-25.498 9,-3 26.999,-20.998 22.499,-18 16.5,-26.998 c 0,0 7.5,4.5 11.999,4.5 4.499,0 22.499,4.498 22.499,4.498 l 9,-16.498 25.499,-25.498 19.499,-18 -6,-29.998 3,-9 19.499,-23.998 26.999,-22.5 23.999,-10.5 0,-13.498 6,-12 -19.5,-16.498 -20.999,-33 -8.999,-4.5 -13.5,-3 -11.999,-14.998 6,-9 -16.499,-16.5 -20.999,-14.998 3,-12 7.392,-22.096 2.5,-33 -2.5,-22.5 -14.5,-12 5,-25.5 -3.5,-21.5 -4,-14.5 22,-43 c 0,0 11,-28.5 12,-30 1,-1.5 9,-25.5 9,-27 0,-1.5 0,-14.5 0,-14.5 l -0.5,-20.5 58,-18.5 44,-62 48,-69 56.5,-82 42.5,-55.5 42,-52 c 0,0 13,-12.5 13,-14 0,-1.5 12.5,-17.5 12.5,-17.5 l 7.5,-2.5 -63,-32.5 -19,-8 -35,-21.5 -35.5,-18 -12.5,-1 -5.5,-15 -11.5,-9 -18.5,3.5 -45,14.5 c 0,0 -40,12 -42,12 -2,0 -30.5,4 -30.5,4 l -35.5,3 4,-34 0.5,-26 0,-46.5 2,-42 3,-25 14,-38.5 5,-23 3,-39.5 4,-22 5.5,-44.501 13.5,-58.5 8,-39.5 13.5,10 c 0,0 11,14 12.5,14.5 1.5,0.5 20.5,7.5 20.5,7.5 l 23.5,4.5 c 0,0 18,1.5 19.5,1.5 1.5,0 7.5,-3 7.5,-3 l 6.5,-2 3,-8.5 0,-7 6.5,-9 0,-11 -4.5,-33 -9,-22 10,-14 2,-37 12,-22 7,-30 10,-13 0,-22 4,-8 -1,-44 c 0,0 -12,-34 -16,-40 -4,-6 -10,-20 -10,-20 l -5,-6 -40,21 -29,13 -14,0 c 0,0 -24,12 -28,12 -4,0 -11,-14 -11,-14 l -7,-21 -12,-1 4,-30 -8,-4 1,-10 6,-5 16,8 30,-11 10,-17 39,-8 32,-21 29,-45 c 0,0 14,-26 18,-28 4,-2 32,-12 32,-12 l 26,-4 19,17 9,3 13,0 17,13 12,5 18,2 16,3 12,4 19,0 12,14 17,5 16,13 20,10 29,2 33,14 29,14 6,-19 39,-1 25,8 9,-34 0,-18 -14,-20 -22,-17 -27,-20 -38.333,-46 -22.667,-30.667 -2.667,-22.667 14.667,-12 18,-13.333 16,-38 15.333,-34 10.667,-25.333 9.333,-22 14,-16 10.667,-33.333 7.333,-26.667 0.667,-26.667 36.667,-4 1.333,6 28.667,0.667 24.666,-4 19.334,0 c 0,0 19.334,-4 22,-4 2.666,0 12.666,-6 15.333,-6 2.667,0 16,8.667 18,8.667 2,0 12.667,2 12.667,2 l 10.666,-4 29.334,0.667 26,-4 c 0,0 22,-4 27.333,-2.667 5.333,1.333 26.667,8 24.667,7.333 -2,-0.667 -1.334,-62 -1.334,-62 l -2.666,-29.333 -7.334,-20.667 -11.333,-22 -1.333,-19.333 c 0,0 35.999,8.667 38.666,8.667 2.667,0 20.667,-2 20.667,-2 l 16,-6 22.667,1.333 c 0,0 27.999,-8 30.666,-8 2.667,0 16,-4.667 16,-4.667 l 2.667,-127.333 -24,0 4.667,-94 40,10 28.666,2.667 38.667,-1.333 26,-4 32,-3.333 19.333,22 -62,48.667 58.667,104 6,1.333 c 0,0 -5.333,34.667 -5.333,36.667 0,2 -7.334,12 -7.334,12 l 1.334,16.667 -2,20.667 18.666,38.667 5.334,20.667 2,10 -45.334,27.333 42,-6 24.667,-4.667 c 0,0 32.667,13.333 36.667,13.333 4,0 32.666,1.333 32.666,1.333 l 58,17.333 40,18.667 20,-8 29.334,-6.667 48,-4.667 4,11.333 24.666,-10.667 16,2.667 16,-10 16,-9.333 31.334,-11.333 9.333,-2.667 12,-16.667 8,-2 19.333,-11.333 14,-17.333 -8.666,-16 19.333,-35.333 2.667,5.333 9.333,-9.333 10.667,-6 -2.667,-5.333 -6.667,-2.667 13.334,-8.667 14.666,0.667 16,-8 6.667,-9.333 4,-21.333 -1.333,-23.333 14.666,-19.333 8,-34.667 2.667,-9.333 15.333,0 2,-6 4.667,-7.333 39.333,36 24.667,14 12,12 c 0,0 27.333,-14.667 29.333,-12 2,2.667 8,10 8,10 l 10,0 0,17.333 c 0,0 22.667,24 24.667,25.333 2,1.333 45.333,27.333 45.333,27.333 l 26.667,-22.667 24.667,2.667 12,-12 -6.667,-30 0.667,-40 41.333,-13.333 2,-41.333 19.333,-6.667 c 0,0 22,-4.667 24,-4.667 2,0 31.334,-1.333 31.334,-1.333 l 1.333,10 c 0,0 50.001,5.333 51.335,3.333 1.334,-2 17.334,-4.667 17.334,-7.333 0,-2.667 4,-16.667 4,-16.667 l 14.666,-8 10.667,-7.333 20,-3.333 8.667,-16 16.666,-8.667 -2.666,-22 -8.667,-5.333 -68.667,-4.667 c 0,0 -55.332,-46 -60.666,-46 -5.334,0 -29.334,-10.667 -29.334,-10.667 l 61.334,-72.667 43.333,14 24.667,-40 7.333,2 27.333,-43.333 10,6.667 19.334,-16.667 6,8 c 0,0 -29.334,58 -28.667,60 0.667,2 7.333,20.667 7.333,20.667 l 78.667,-44 -14.667,135.333 43.333,44 84,45.333 18.667,6 51.333,42.667 42.667,-20 11.333,21.333 13.334,0.667 -4.667,80.667 -18.667,88.667 -77.333,50.667 0.667,66 -9.334,6 -32,94 -8,69.333 16,-4.667 73.334,141.333 98.666,-14 24,4 35.334,8 47.333,14.667 59.333,16 -0.666,6.667 38.666,20 35.334,28 32.666,25.333 21.334,26 18,26.667 13.333,28.667 40.666,-16 14,10 7.334,20.667 22,-1.333 16,40 1.333,25.333 8.667,20.667 2,20.667 3.333,20 13.333,21.333 13.334,20 -3.334,23.333 0,21.333 -3.333,22.667 192.666,46 57.334,6.667 39.333,1.333 58.667,8.667 4,12.667 -22,36.667 -16,-2 c 0,0 -2.668,6 -5.334,6 -2.666,0 -10,-3.333 -10,-3.333 0,0 -7.333,3.333 -9.333,3.333 -2,0 -20.667,-2 -20.667,-2 l 9.334,40 -4.667,6 8.667,39.333 24.666,-2.667 50.667,-6.667 52,8 34.666,-2 48.667,-6 13.333,42.667 -30.666,29.332 -25.334,20.668 -24.666,20.666 -26.667,26 -28.667,34 -26.666,45.334 -12,35.332 -9.334,32.668 -8,42.666 -6.666,37.334 -4.667,31.332 -8,12 37.333,12 -25.333,44 -62.667,97.334 -4.666,57.334 16.666,9.332 c 0,0 -30,45.334 -28,45.334 2,0 25.334,7.334 25.334,7.334 l 13.333,-14.668 28.667,9.334 0.666,21.334 3.334,0.666 -0.667,20.666 8.667,0.668 2,-4.668 -4,-20.666 14,-2.666 -1.334,-52 21.334,-0.668 c 0,0 15.333,-16.666 17.333,-18 2,-1.332 30,-12.666 30,-12.666 l 23.333,-14.666 c 0,0 24.668,-26 27.334,-26 2.666,0 29.333,3.332 29.333,3.332 l 34,16 17.333,1.334 26,18 22.667,12.666 c 0,0 11.333,0.668 15.333,0.668 4,0 22.667,-6.668 22.667,-6.668 l 19.333,12 32,22.668 31.333,16.666 12.667,21.334 c 0,0 17.333,11.332 19.333,12 2,0.666 20.667,5.332 20.667,5.332 l 42.666,4.668 19.334,3.332 c 0,0 13.333,33.334 13.333,35.334 0,2 2,24 2,24 l 10.667,18 -0.667,14.666 0,10 44.667,2 4.666,-18 -0.666,-20.666 -4,-18 -16,-3.334 -8,-47.332 -14,-21.334 -8,-20 12,0.666 24,21.334 31.333,20 c 0,0 22,12.666 24,12.666 2,0 17.333,0 17.333,0 l 23.335,29.334 18,36 c 0,0 22.666,22.666 24.666,22.666 2,0 22,22.668 22,22.668 0,0 12.666,15.332 16,16 3.334,0.666 32.667,1.332 32.667,1.332 l 5.333,-4.666 6.667,1.334 2,6 c 0,0 49.333,10 52,10 2.667,0 9.333,-6 9.333,-6 0,0 42.667,14.666 44.667,14.666 2,0 27.333,14 27.333,14 l 4,8 6.667,-4 -11.333,31.334 20.666,3.332 -8,47.334 37.333,4.666 -10.666,19.334 -38,-0.666 8.666,-56.668 -36,6.668 -41.333,37.332 -4.667,55.334 -27.333,2 -4.667,2 -28,0 -25.333,-9.334 -27.333,-16.666 -22.667,-16 -6.667,-6 0.667,13.334 20.667,16.666 22.666,12.666 17.334,4.668 18.666,4 20.667,1.332 20,4.668 -1.333,35.332 17.333,8 -4,16 -25.333,4 -36.667,71.334 2,13.334 -4,12.666 -4.667,18.666 8,15.334 11.334,15.334 13.333,18 -2,8 22,11.332 8.667,13.334 3.333,17.334 -16.667,12.666 -6,26 -0.666,16.666 -26,27.334 -7.334,-2 -6,1.334 -6,0 -12,6.666 -11.333,11.334 -18,3.332 -8,-4.666 -13.333,0.666 -8,-8 -16,10.668 -12,12.666 -10.667,6.666 -2.667,9.334 -8.666,7.334 -12,8 -10.667,6 -9.333,10 -8.667,0.666 -21.333,34 -2,-11.334 -8,-1.332 -2.667,19.332 -14,16.668 -10.667,16 -12,12.666 -10.666,11.334 -12,0 -6.667,3.332 -5.333,14 10,10.668 10.666,-3.334 38,22 31.334,-5.334 -12,41.334 18,0.666 4.666,3.334 -0.666,11.334 -8,17.332 -8.667,21.334 -13.333,26 -14.667,18.666 4,12 c 0,0 -12,2 -10,2.668 2,0.666 4,6 4,6 l -10.667,-4 -10,4 -10,0.666 -22.666,-14.666 -15.334,-6.668 -22,8 -29.333,20 -20,5.334 -8,20 -3.333,6.666 -8,4.668 -8.667,18.666 -3.333,38.666 1.333,16.668 c 0,0 -15.333,2 -15.333,4 0,2 -4,13.332 -4,13.332 l -3.334,16 -6,13.334 -15.333,7.334 -0.667,13.332 -13.333,6 -0.667,19.334 -4,16 1.334,13.334 -8,9.332 -7.334,11.334 -11.333,21.334 -0.667,17.332 c 0,0 1.334,22.668 1.334,25.334 0,2.666 -8,12.666 -8,12.666 l -14.667,4 -16,-3.332 -12.667,-8.668 -8,-0.666 c 0,0 -19.332,-24.668 -22.666,-25.334 -3.334,-0.666 -25.334,-38.666 -25.334,-38.666 l -4,-36 -0.666,-64.666 c 0,0 1.333,-38 1.333,-40 0,-2 12.667,-26.668 12.667,-26.668 l 30.666,-37.332 c 0,0 17.333,-19.334 18,-22.668 0.667,-3.332 0,-20.666 0,-20.666 l -8,-25.334 -30.666,-6 4.666,-29.332 -8.666,-48.668 -61.334,18 -38.666,-54 -144,94 3.333,-24 -3.333,-12.666 -4,-7.334 -3.334,-3.332 6.667,-11.334 -6,-19.334 -14.667,-10 c 0,0 -5.333,-13.998 -7.333,-14.666 -2,-0.666 -12,-7.334 -12,-7.334 l -12,-15.332 -20.667,-4 -10,-17.334 0.667,-8.666 -2,-9.334 -7.333,-2.666 -4,-10 4,-12.668 0.666,-10 -4.666,-9.332 -8,-7.334 -52.666,27.334 -32.666,9.332 c 0,0 -28,10.668 -30.667,10.668 -2.667,0 -20,6 -20,6 0,0 -22,12.666 -24,12.666 -2,0 -31.333,10 -31.333,10 l -32,0 c 0,0 -31.334,-0.666 -34.667,-0.666 -3.333,0 -29.333,1.332 -29.333,1.332 l -28,1.334 c 0,0 -21.334,0 -23.334,0 -2,0 -51.333,1.334 -51.333,1.334 l -2,-20.668 0,-24 2,-20 6.667,-30.666 4,-22 4.666,-11.334 c 0,0 -23.334,15.334 -26,15.334 -2.666,0 -28,18.666 -28,18.666 0,0 -40.666,-15.332 -44.666,-17.332 -4,-2 -35.333,-18 -35.333,-18 0,0 -14,-4.668 -16.667,-4.668 -2.667,0 -17.334,8.668 -20.667,9.334 -3.333,0.666 -40,12 -40,12 l -40.666,9.334 -42.667,10.666 -56.667,21.334 -44,14.666 -13.333,-62.666 -20.667,-47.334 c 0,0 -57.333,-149.332 -63.999,-150 -6.666,-0.666 -22.667,-9.334 -28,-9.334 -5.333,0 -33.333,7.334 -33.333,7.334 0,0 -84.001,48.666 -86.667,49.334 -2.666,0.666 -49.333,25.332 -49.333,25.332 0,0 -42.667,27.334 -48,26.668 -5.333,-0.668 -82,29.332 -82,29.332 l -1.333,30.668 76,230.666 -5.334,25.334 -35.333,92.666 c 0,0 -94,-4 -102,-2.666 -8,1.332 -116.667,-3.334 -116.667,-3.334 l -14.667,-118 -114.666,4 c 0,0 6.666,-56.668 4.666,-57.334 -2,-0.666 -69.333,-36 -69.333,-36 l -69.003,-48.335 z"
       inkscape:connector-curvature="0" />
    <inkscape:perspective
       id="perspective3370"
       inkscape:persp3d-origin="0.5 : 0.33333333 : 1"
       inkscape:vp_z="1 : 0.5 : 1"
       inkscape:vp_y="0 : 1000 : 0"
       inkscape:vp_x="0 : 0.5 : 1"
       sodipodi:type="inkscape:persp3d" />
    <clipPath
       id="Schnittmaske_2_-1">
      <use
         xlink:href="#Schnittmaske"
         id="use18-7"
         x="0"
         y="0"
         width="5048.2329"
         height="3701.373" />
    </clipPath>
    <inkscape:perspective
       id="perspective4172"
       inkscape:persp3d-origin="0.5 : 0.33333333 : 1"
       inkscape:vp_z="1 : 0.5 : 1"
       inkscape:vp_y="0 : 1000 : 0"
       inkscape:vp_x="0 : 0.5 : 1"
       sodipodi:type="inkscape:persp3d" />
    <clipPath
       id="Schnittmaske_2_-0">
      <use
         xlink:href="#Schnittmaske"
         id="use18-9"
         x="0"
         y="0"
         width="5048.2329"
         height="3701.373" />
    </clipPath>
    <inkscape:perspective
       id="perspective4172-8"
       inkscape:persp3d-origin="0.5 : 0.33333333 : 1"
       inkscape:vp_z="1 : 0.5 : 1"
       inkscape:vp_y="0 : 1000 : 0"
       inkscape:vp_x="0 : 0.5 : 1"
       sodipodi:type="inkscape:persp3d" />
    <clipPath
       id="Schnittmaske_2_-8">
      <use
         xlink:href="#Schnittmaske"
         id="use18-2"
         x="0"
         y="0"
         width="5048.2329"
         height="3701.373" />
    </clipPath>
    <clipPath
       clipPathUnits="userSpaceOnUse"
       id="clipPath4210">
      <path
         id="path4212"
         clip-path="url(#Schnittmaske_2_-8)"
         d="m 1845.565,3094.159 -66,-57.5 0,-44.5 -115.5,78.5 -55,37 -34.5,32.5 -18,-26 -102,-135 7,-5.5 2.5,-7.5 -4.5,-6.5 -45.5,46 -48,50 -28.5,26.5 -29.5,17 -28.5,5.5 -17,0 -18,-3 -21.5,-11.5 -15.5,-4.5 -22.5,0 -39,19.5 -0.5,-7 c 0,0 -0.5,-14.5 -0.5,-16.5 0,-2 -5.5,-15.5 -5.5,-15.5 l -1,-18 c 0,0 -2,-26 -2,-27.5 0,-1.5 -7,-29 -7,-29 l -8,-25.5 -1,-18.5 -10.5,-21.5 -35,6 c 0,0 -33.5,1 -35,1 -1.5,0 -15,5.5 -15,5.5 l -58,-4.5 -27,14.5 -29.5,15 -43,25 -47.5,14 -26,6.5 -16.5,1 -25.5,18.5 -219,131.5 0,21 -2,23 -6.5,33 7.5,-1 33,-7 21.5,-5 31,-9.5 3,23 -21.5,16.5 -30,3.5 -39.5,5.5 -28.5,-9 -21.5,-2.5 -29.5,-1.5 -23,-9 -3,-7.5 -22,15.5 -23.5,23.5 -22.5,26 -9.5,14.5 c 0,0 10,11 12.5,12 2.5,1 8,11 8,11 l -2.5,11.5 -14,1 -20.5,-12.5 c 0,0 -11,-9 -11,-10.5 0,-1.5 3.5,-24 3.5,-24 l 5.5,-5.5 20.5,-2 11.5,-12.5 c 0,0 18,-18 18.5,-19.5 0.5,-1.5 16.5,-17.5 16.5,-17.5 l -17.5,1 -2,-4 -4.5,-8 21.5,-8 -32.5,-12.5 -4.5,3 -6,9.5 -10,10 -14,6 -13.5,6 c 0,0 -12,-7 -13.5,-7.5 -1.5,-0.5 -14,-9.5 -14,-9.5 l -13,-19 -16,-19 -6.5,-6 -11.5,-5 -20,-6 -13.5,-13 -2,-10.5 -10.5,-12.5 -7,-5.5 1.5,-3 7,-7.5 -7,-5 -13.5,0 2,-8 5,-8.5 7,-9 6,-13 -0.5,-8 -20,-7.5 -2.892,9.074 3,19.5 -4.5,10.5 -13.5,-1.5 -20.999,0 0,-15 -3,-18 -6,-2.998 -22.499,10.498 3,10.5 13.5,12 0,8.998 -14.999,6 -9,-8.998 -19.499,-4.5 c 0,0 -12,-3 -16.5,-7.5 -4.5,-4.5 1.5,-19.5 1.5,-19.5 l -6,-17.998 -3,-22.5 -12,-25.498 9,-3 26.999,-20.998 22.499,-18 16.5,-26.998 c 0,0 7.5,4.5 11.999,4.5 4.499,0 22.499,4.498 22.499,4.498 l 9,-16.498 25.499,-25.498 19.499,-18 -6,-29.998 3,-9 19.499,-23.998 26.999,-22.5 23.999,-10.5 0,-13.498 6,-12 -19.5,-16.498 -20.999,-33 -8.999,-4.5 -13.5,-3 -11.999,-14.998 6,-9 -16.499,-16.5 -20.999,-14.998 3,-12 7.392,-22.096 2.5,-33 -2.5,-22.5 -14.5,-12 5,-25.5 -3.5,-21.5 -4,-14.5 22,-43 c 0,0 11,-28.5 12,-30 1,-1.5 9,-25.5 9,-27 0,-1.5 0,-14.5 0,-14.5 l -0.5,-20.5 58,-18.5 44,-62 48,-69 56.5,-82 42.5,-55.5 42,-52 c 0,0 13,-12.5 13,-14 0,-1.5 12.5,-17.5 12.5,-17.5 l 7.5,-2.5 -63,-32.5 -19,-8 -35,-21.5 -35.5,-18 -12.5,-1 -5.5,-15 -11.5,-9 -18.5,3.5 -45,14.5 c 0,0 -40,12 -42,12 -2,0 -30.5,4 -30.5,4 l -35.5,3 4,-34 0.5,-26 0,-46.5 2,-42 3,-25 14,-38.5 5,-23 3,-39.5 4,-22 5.5,-44.5 13.5,-58.5 8,-39.5 13.5,10 c 0,0 11,14 12.5,14.5 1.5,0.5 20.5,7.5 20.5,7.5 l 23.5,4.5 c 0,0 18,1.5 19.5,1.5 1.5,0 7.5,-3 7.5,-3 l 6.5,-2 3,-8.5 0,-7 6.5,-9 0,-11 -4.5,-33 -9,-22 10,-14 2,-37 12,-22 7,-30 10,-13 0,-22 4,-8 -1,-44 c 0,0 -12,-34 -16,-40 -4,-6 -10,-20 -10,-20 l -5,-6 -40,21 -29,13 -14,0 c 0,0 -24,12 -28,12 -4,0 -11,-14 -11,-14 l -7,-21 -12,-1 4,-30 -8,-4 1,-10 6,-5 16,8 30,-11 10,-17 39,-8 32,-21 29,-45 c 0,0 14,-26 18,-28 4,-2 32,-12 32,-12 l 26,-4 19,17 9,3 13,0 17,13 12,5 18,2 16,3 12,4 19,0 12,14 17,5 16,13 20,10 29,2 33,14 29,14 6,-19 39,-1 25,8 9,-34 0,-18 -14,-20 -22,-17 -27,-20 -38.333,-46 -22.667,-30.667 -2.667,-22.667 14.667,-12 18,-13.333 16,-38 15.333,-34 10.667,-25.333 9.333,-22 14,-16 10.667,-33.333 7.333,-26.667 0.667,-26.667 36.667,-4 1.333,6 28.667,0.667 24.666,-4 19.334,0 c 0,0 19.334,-4 22,-4 2.666,0 12.666,-6 15.333,-6 2.667,0 16,8.667 18,8.667 2,0 12.667,2 12.667,2 l 10.666,-4 29.334,0.667 26,-4 c 0,0 22,-4 27.333,-2.667 5.333,1.333 26.667,8 24.667,7.333 -2,-0.667 -1.334,-62 -1.334,-62 l -2.666,-29.333 -7.334,-20.667 -11.333,-22 -1.333,-19.333 c 0,0 35.999,8.667 38.666,8.667 2.667,0 20.667,-2 20.667,-2 l 16,-6 22.667,1.333 c 0,0 27.999,-8 30.666,-8 2.667,0 16,-4.667 16,-4.667 l 2.667,-127.333 -24,0 4.667,-94 40,10 28.666,2.667 38.667,-1.333 26,-4 32,-3.333 19.333,22 -62,48.667 58.667,104 6,1.333 c 0,0 -5.333,34.667 -5.333,36.667 0,2 -7.334,12 -7.334,12 l 1.334,16.667 -2,20.667 18.666,38.667 5.334,20.667 2,10 -45.334,27.333 42,-6 24.667,-4.667 c 0,0 32.667,13.333 36.667,13.333 4,0 32.666,1.333 32.666,1.333 l 58,17.333 40,18.667 20,-8 29.334,-6.667 48,-4.667 4,11.333 24.666,-10.667 16,2.667 16,-10 16,-9.333 31.334,-11.333 9.333,-2.667 12,-16.667 8,-2 19.333,-11.333 14,-17.333 -8.666,-16 19.333,-35.333 2.667,5.333 9.333,-9.333 10.667,-6 -2.667,-5.333 -6.667,-2.667 13.334,-8.667 14.666,0.667 16,-8 6.667,-9.333 4,-21.333 -1.333,-23.333 14.666,-19.333 8,-34.667 2.667,-9.333 15.333,0 2,-6 4.667,-7.333 39.333,36 24.667,14 12,12 c 0,0 27.333,-14.667 29.333,-12 2,2.667 8,10 8,10 l 10,0 0,17.333 c 0,0 22.667,24 24.667,25.333 2,1.333 45.333,27.333 45.333,27.333 l 26.667,-22.667 24.667,2.667 12,-12 -6.667,-30 0.667,-40 41.333,-13.333 2,-41.333 19.333,-6.667 c 0,0 22,-4.667 24,-4.667 2,0 31.334,-1.333 31.334,-1.333 l 1.333,10 c 0,0 50.001,5.333 51.335,3.333 1.334,-2 17.334,-4.667 17.334,-7.333 0,-2.667 4,-16.667 4,-16.667 l 14.666,-8 10.667,-7.333 20,-3.333 8.667,-16 16.666,-8.667 -2.666,-22 -8.667,-5.333 -68.667,-4.667 c 0,0 -55.332,-46 -60.666,-46 -5.334,0 -29.334,-10.667 -29.334,-10.667 l 61.334,-72.667 43.333,14 24.667,-40 7.333,2 27.333,-43.333 10,6.667 19.334,-16.667 6,8 c 0,0 -29.334,58 -28.667,60 0.667,2 7.333,20.667 7.333,20.667 l 78.667,-44 -14.667,135.33 43.333,44 84,45.333 18.667,6 51.333,42.667 42.667,-20 11.333,21.333 13.334,0.667 -4.667,80.667 -18.667,88.667 -77.333,50.667 0.667,66 -9.334,6 -32,94 -8,69.333 16,-4.667 73.334,141.333 98.666,-14 24,4 35.334,8 47.333,14.667 59.333,16 -0.666,6.667 38.666,20 35.334,28 32.666,25.333 21.334,26 18,26.667 13.333,28.667 40.666,-16 14,10 7.334,20.667 22,-1.333 16,40 1.333,25.333 8.667,20.667 2,20.667 3.333,20 13.333,21.333 13.334,20 -3.334,23.333 0,21.333 -3.333,22.667 192.666,46 57.334,6.667 39.333,1.333 58.667,8.667 4,12.667 -22,36.667 -16,-2 c 0,0 -2.668,6 -5.334,6 -2.666,0 -10,-3.333 -10,-3.333 0,0 -7.333,3.333 -9.333,3.333 -2,0 -20.667,-2 -20.667,-2 l 9.334,40 -4.667,6 8.667,39.333 24.666,-2.667 50.667,-6.667 52,8 34.666,-2 48.667,-6 13.333,42.667 -30.666,29.333 -25.334,20.667 -24.666,20.666 -26.667,26 -28.667,34 -26.666,45.334 -12,35.332 -9.334,32.668 -8,42.666 -6.666,37.334 -4.667,31.332 -8,12 37.333,12 -25.333,44 -62.667,97.334 -4.666,57.334 16.666,9.332 c 0,0 -30,45.334 -28,45.334 2,0 25.334,7.334 25.334,7.334 l 13.333,-14.668 28.667,9.334 0.666,21.334 3.334,0.666 -0.667,20.666 8.667,0.668 2,-4.668 -4,-20.666 14,-2.666 -1.334,-52 21.334,-0.668 c 0,0 15.333,-16.666 17.333,-18 2,-1.332 30,-12.666 30,-12.666 l 23.333,-14.666 c 0,0 24.668,-26 27.334,-26 2.666,0 29.333,3.332 29.333,3.332 l 34,16 17.333,1.334 26,18 22.667,12.666 c 0,0 11.333,0.668 15.333,0.668 4,0 22.667,-6.668 22.667,-6.668 l 19.333,12 32,22.668 31.333,16.666 12.667,21.334 c 0,0 17.333,11.332 19.333,12 2,0.666 20.667,5.332 20.667,5.332 l 42.666,4.668 19.334,3.332 c 0,0 13.333,33.334 13.333,35.334 0,2 2,24 2,24 l 10.667,18 -0.667,14.666 0,10 44.667,2 4.666,-18 -0.666,-20.666 -4,-18 -16,-3.334 -8,-47.332 -14,-21.334 -8,-20 12,0.666 24,21.334 31.333,20 c 0,0 22,12.666 24,12.666 2,0 17.333,0 17.333,0 l 23.335,29.334 18,36 c 0,0 22.666,22.666 24.666,22.666 2,0 22,22.668 22,22.668 0,0 12.666,15.332 16,16 3.334,0.666 32.667,1.332 32.667,1.332 l 5.333,-4.666 6.667,1.334 2,6 c 0,0 49.333,10 52,10 2.667,0 9.333,-6 9.333,-6 0,0 42.667,14.666 44.667,14.666 2,0 27.333,14 27.333,14 l 4,8 6.667,-4 -11.333,31.334 20.666,3.332 -8,47.334 37.333,4.666 -10.666,19.334 -38,-0.666 8.666,-56.668 -36,6.668 -41.333,37.332 -4.667,55.334 -27.333,2 -4.667,2 -28,0 -25.333,-9.334 -27.333,-16.666 -22.667,-16 -6.667,-6 0.667,13.334 20.667,16.666 22.666,12.666 17.334,4.668 18.666,4 20.667,1.332 20,4.668 -1.333,35.332 17.333,8 -4,16 -25.333,4 -36.667,71.334 2,13.334 -4,12.666 -4.667,18.666 8,15.334 11.334,15.334 13.333,18 -2,8 22,11.332 8.667,13.334 3.333,17.334 -16.667,12.666 -6,26 -0.666,16.666 -26,27.334 -7.334,-2 -6,1.334 -6,0 -12,6.666 -11.333,11.334 -18,3.332 -8,-4.666 -13.333,0.666 -8,-8 -16,10.668 -12,12.666 -10.667,6.666 -2.667,9.334 -8.666,7.334 -12,8 -10.667,6 -9.333,10 -8.667,0.666 -21.333,34 -2,-11.334 -8,-1.332 -2.667,19.332 -14,16.668 -10.667,16 -12,12.666 -10.666,11.334 -12,0 -6.667,3.332 -5.333,14 10,10.668 10.666,-3.334 38,22 31.334,-5.334 -12,41.334 18,0.666 4.666,3.334 -0.666,11.334 -8,17.332 -8.667,21.334 -13.333,26 -14.667,18.666 4,12 c 0,0 -12,2 -10,2.668 2,0.666 4,6 4,6 l -10.667,-4 -10,4 -10,0.666 -22.666,-14.666 -15.334,-6.668 -22,8 -29.333,20 -20,5.334 -8,20 -3.333,6.666 -8,4.668 -8.667,18.666 -3.333,38.666 1.333,16.668 c 0,0 -15.333,2 -15.333,4 0,2 -4,13.332 -4,13.332 l -3.334,16 -6,13.334 -15.333,7.334 -0.667,13.332 -13.333,6 -0.667,19.334 -4,16 1.334,13.334 -8,9.332 -7.334,11.334 -11.333,21.334 -0.667,17.332 c 0,0 1.334,22.668 1.334,25.334 0,2.666 -8,12.666 -8,12.666 l -14.667,4 -16,-3.332 -12.667,-8.668 -8,-0.666 c 0,0 -19.332,-24.668 -22.666,-25.334 -3.334,-0.666 -25.334,-38.666 -25.334,-38.666 l -4,-36 -0.666,-64.666 c 0,0 1.333,-38 1.333,-40 0,-2 12.667,-26.668 12.667,-26.668 l 30.666,-37.332 c 0,0 17.333,-19.334 18,-22.668 0.667,-3.332 0,-20.666 0,-20.666 l -8,-25.334 -30.666,-6 4.666,-29.332 -8.666,-48.668 -61.334,18 -38.666,-54 -144,94 3.333,-24 -3.333,-12.666 -4,-7.334 -3.334,-3.332 6.667,-11.334 -6,-19.334 -14.667,-10 c 0,0 -5.333,-13.998 -7.333,-14.666 -2,-0.666 -12,-7.334 -12,-7.334 l -12,-15.332 -20.667,-4 -10,-17.334 0.667,-8.666 -2,-9.334 -7.333,-2.666 -4,-10 4,-12.668 0.666,-10 -4.666,-9.332 -8,-7.334 -52.666,27.334 -32.666,9.332 c 0,0 -28,10.668 -30.667,10.668 -2.667,0 -20,6 -20,6 0,0 -22,12.666 -24,12.666 -2,0 -31.333,10 -31.333,10 l -32,0 c 0,0 -31.334,-0.666 -34.667,-0.666 -3.333,0 -29.333,1.332 -29.333,1.332 l -28,1.334 c 0,0 -21.334,0 -23.334,0 -2,0 -51.333,1.334 -51.333,1.334 l -2,-20.668 0,-24 2,-20 6.667,-30.666 4,-22 4.666,-11.334 c 0,0 -23.334,15.334 -26,15.334 -2.666,0 -28,18.666 -28,18.666 0,0 -40.666,-15.332 -44.666,-17.332 -4,-2 -35.333,-18 -35.333,-18 0,0 -14,-4.668 -16.667,-4.668 -2.667,0 -17.334,8.668 -20.667,9.334 -3.333,0.666 -40,12 -40,12 l -40.666,9.334 -42.667,10.666 -56.667,21.334 -44,14.666 -13.333,-62.666 -20.667,-47.334 c 0,0 -57.333,-149.332 -63.999,-150 -6.666,-0.666 -22.667,-9.334 -28,-9.334 -5.333,0 -33.333,7.334 -33.333,7.334 0,0 -84.001,48.666 -86.667,49.334 -2.666,0.666 -49.333,25.332 -49.333,25.332 0,0 -42.667,27.334 -48,26.668 -5.333,-0.668 -82,29.332 -82,29.332 l -1.333,30.668 76,230.666 -5.334,25.334 -35.333,92.666 c 0,0 -94,-4 -102,-2.666 -8,1.332 -116.667,-3.334 -116.667,-3.334 l -14.667,-118 -114.666,4 c 0,0 6.666,-56.668 4.666,-57.334 -2,-0.666 -69.333,-36 -69.333,-36 l -69.003,-48.333 z"
         style="fill:#fefee9;fill-opacity:1;fill-rule:nonzero;stroke:none;stroke-width:1;marker:none;visibility:visible;display:inline;overflow:visible;enable-background:accumulate"
         transform="translate(-7.350512e-8,3.7359334e-5)"
         inkscape:connector-curvature="0" />
    </clipPath>
    <inkscape:perspective
       id="perspective4223"
       inkscape:persp3d-origin="0.5 : 0.33333333 : 1"
       inkscape:vp_z="1 : 0.5 : 1"
       inkscape:vp_y="0 : 1000 : 0"
       inkscape:vp_x="0 : 0.5 : 1"
       sodipodi:type="inkscape:persp3d" />
    <clipPath
       id="Schnittmaske_2_-0-5">
      <use
         xlink:href="#Schnittmaske"
         id="use18-9-5"
         x="0"
         y="0"
         width="5048.2329"
         height="3701.373" />
    </clipPath>
    <inkscape:perspective
       id="perspective4488"
       inkscape:persp3d-origin="0.5 : 0.33333333 : 1"
       inkscape:vp_z="1 : 0.5 : 1"
       inkscape:vp_y="0 : 1000 : 0"
       inkscape:vp_x="0 : 0.5 : 1"
       sodipodi:type="inkscape:persp3d" />
    <clipPath
       id="Schnittmaske_2_-17">
      <use
         xlink:href="#Schnittmaske"
         id="use18-1"
         x="0"
         y="0"
         width="5048.2329"
         height="3701.373" />
    </clipPath>
    <inkscape:perspective
       id="perspective4617"
       inkscape:persp3d-origin="0.5 : 0.33333333 : 1"
       inkscape:vp_z="1 : 0.5 : 1"
       inkscape:vp_y="0 : 1000 : 0"
       inkscape:vp_x="0 : 0.5 : 1"
       sodipodi:type="inkscape:persp3d" />
    <clipPath
       id="Schnittmaske_2_-5">
      <use
         xlink:href="#Schnittmaske"
         id="use18-27"
         x="0"
         y="0"
         width="5048.2329"
         height="3701.373" />
    </clipPath>
    <inkscape:perspective
       id="perspective4697"
       inkscape:persp3d-origin="0.5 : 0.33333333 : 1"
       inkscape:vp_z="1 : 0.5 : 1"
       inkscape:vp_y="0 : 1000 : 0"
       inkscape:vp_x="0 : 0.5 : 1"
       sodipodi:type="inkscape:persp3d" />
    <inkscape:perspective
       id="perspective4735"
       inkscape:persp3d-origin="0.5 : 0.33333333 : 1"
       inkscape:vp_z="1 : 0.5 : 1"
       inkscape:vp_y="0 : 1000 : 0"
       inkscape:vp_x="0 : 0.5 : 1"
       sodipodi:type="inkscape:persp3d" />
    <clipPath
       clipPathUnits="userSpaceOnUse"
       id="clipPath3591">
      <path
         style="fill:#e9afaf;fill-opacity:1;fill-rule:nonzero;stroke:none;stroke-width:12;marker:none;visibility:visible;display:inline;overflow:visible;enable-background:accumulate"
         d="m -70.557799,-62.76461 0,3881.76491 5152.095799,0 0,-3881.76491 -5152.095799,0 z M 2282.4849,814.73579 c 9.9105,-0.0992 18.7543,8.77697 18.0576,18.8643 7.6102,-0.5809 15.9752,-1.75083 22.8667,2.35804 10.7,-4.42779 23.2268,-5.34619 34.0365,-0.77567 2.4473,2.09162 4.0572,0.81848 6.4225,-0.52746 8.0698,-1.47953 16.9943,-2.89657 24.8836,-0.15513 4.9412,0.65683 10.4844,-2.20482 15.8235,-1.52031 4.8893,-0.99062 9.0454,3.3635 13.714,1.42723 10.0289,-2.53278 23.8914,-3.20708 30.8716,6.05023 5.0888,10.59175 -0.3061,22.74076 -2.8544,33.29177 -4.449,11.56602 -1.9846,27.00173 -12.9072,35.30852 -7.6255,3.25423 -16.7046,3.71546 -24.9456,2.45112 -4.5765,-2.55651 -9.1864,0.0627 -13.993,0.37232 -9.3054,0.52665 -21.0347,1.39344 -26.6831,-7.78773 -8.8975,6.5648 -21.7612,10.75069 -33.4779,8.37724 -4.1615,0.47052 -7.4134,-4.23232 -11.3248,-2.42009 -7.2422,2.61406 -15.7859,2.3084 -23.5184,1.61339 -3.6554,0.80776 -6.0169,-4.29862 -9.2149,-1.42723 -7.6537,2.29809 -16.6742,2.9313 -24.3871,0.31027 -8.9518,1.01744 -19.2624,3.44985 -27.9862,-0.68259 -8.5471,2.19418 -18.2365,3.71241 -26.9933,0.62053 -8.0074,2.57985 -16.627,0.81634 -24.9145,1.21005 -15.8662,5.73038 -34.7315,-4.46781 -39.2801,-20.57078 0.2626,-4.63925 -4.0769,-0.79579 -6.6396,-1.17902 0.9065,8.62625 -3.422,18.91504 -12.2556,21.4085 -10.1418,0.51131 -23.1193,3.12449 -30.8096,-5.30558 -6.3341,-12.33257 -3.481,-27.07713 -3.5991,-40.45897 1.3583,-12.57607 -2.7433,-25.57172 1.3341,-37.82169 4.2205,-10.9569 18.1467,-10.95386 27.9552,-9.86653 15.3898,-1.53446 34.0856,1.35982 42.7548,15.69957 12.8275,-1.64153 27.741,-3.42294 39.4042,4.18862 4.1209,-2.80476 9.9905,-5.16567 15.5754,-4.7471 11.3096,1.77931 22.9246,-2.78565 33.9744,0.86875 0.6436,-2.09944 0.087,-5.53208 1.3342,-7.94286 2.9347,-10.45239 15.6652,-11.51272 24.7904,-11.07658 0.6679,-0.0887 1.3249,-0.14852 1.9857,-0.15513 z M 1082.802,893.01644 c 7.3832,-0.21492 15.0243,2.79263 18.0265,10.08372 2.2321,2.31923 0.4776,8.30874 3.5372,8.37724 10.8284,1.17967 21.8748,-2.53524 32.5161,0.58951 1.3148,-1.09054 0.7042,-5.62207 2.0167,-7.91184 3.4453,-11.23636 17.535,-11.4584 27.2415,-10.54912 10.7877,-0.88884 18.1301,10.21517 17.4681,20.13641 7.5377,-2.84564 16.8545,-4.30045 25.2559,-2.57523 0.8221,-1.89737 0.4927,-5.93723 1.9857,-8.43929 4.4093,-9.72789 16.6977,-9.68446 25.7833,-9.58729 9.8916,-0.52181 18.7845,8.65689 18.523,18.46096 6.9623,0.31415 15.8916,-1.66837 22.6806,2.60625 12.393,-4.91682 27.5382,-5.34286 39.0007,2.26496 6.5315,-6.26884 16.3985,-5.38495 24.6974,-4.56094 11.6122,-2.12808 25.4782,-2.30478 34.5948,6.54665 4.9277,-3.05265 9.8478,-6.47391 15.6065,-7.72567 5.268,0.66075 3.0522,-6.30387 5.6159,-9.33907 4.9538,-9.13225 17.4284,-8.24624 26.3728,-7.78774 10.5045,-0.64442 17.6189,10.00108 17.2199,19.70203 8.7953,-2.95068 19.9701,-4.20077 29.4134,-0.86875 3.9501,0.36642 7.542,5.85233 10.7042,1.92366 10.4175,-5.91167 22.834,-0.2911 33.9123,-3.44397 3.9281,-6.30474 9.4878,-12.72787 16.9407,-15.3893 10.322,-2.36938 22.1885,-4.11232 32.0817,0.80669 10.0326,6.94049 7.2609,20.67006 6.1123,30.96477 1.6002,9.48682 -0.2273,22.33803 -10.6422,26.03154 -2.1829,2.89925 0.098,8.85431 -0.4654,12.87608 0.9147,8.9813 -1.6882,20.28558 -11.511,23.14601 -10.1913,1.29459 -23.7974,3.48275 -30.8716,-5.83304 -1.6386,0.21366 -3.5592,4.04272 -5.9883,4.87116 -10.0849,2.90103 -22.9012,4.39518 -31.6162,-2.82339 -13.0951,7.34298 -30.5189,8.28629 -43.3446,-0.18616 -6.169,5.76969 -15.3782,5.47918 -23.239,4.71607 -9.7748,0.37629 -20.5104,2.98235 -29.6616,-2.20295 -2.7622,-3.59405 -4.0493,1.67286 -7.5396,1.3342 -8.3069,1.19798 -17.6627,2.71477 -25.442,-0.99286 -9.5171,2.17367 -21.2076,4.35408 -30.4372,-0.96188 -12.4825,4.08929 -27.284,6.48376 -39.4661,0.52751 -3.6601,0.89407 -7.6313,2.42297 -11.6971,2.45107 -6.7547,-0.14 -14.7061,1.58698 -20.5708,-2.48215 -8.9177,2.72768 -19.6898,4.32042 -28.917,0.65161 -12.7937,3.92854 -28.3082,4.61501 -39.9626,-3.00965 -6.2174,4.93431 -15.1595,5.68511 -23.0529,4.77823 -3.9366,0.85892 -6.8653,-3.0997 -10.5492,-0.86875 -7.8108,1.06841 -16.7365,2.63276 -24.1387,-1.08599 -8.4576,1.91562 -18.4875,4.08522 -26.9003,0.37232 -9.6195,1.53685 -20.7525,4.03418 -29.8167,-1.36518 -12.329,4.23157 -26.312,6.09099 -38.7215,1.2101 -2.2414,-2.53467 -4.5972,-0.46178 -6.857,0.71357 -9.3691,1.293 -19.90033,2.9743 -28.79287,-1.33411 -3.15848,-3.87443 -5.79958,1.96904 -9.3701,2.20286 -10.29955,0.0931 -23.91706,2.81564 -30.93373,-6.8259 -5.14528,-15.43239 -2.3623,-32.18578 -2.66831,-48.18465 0.89208,-11.41246 -3.91572,-25.27164 5.05737,-34.53284 9.06537,-6.25805 21.1413,-4.29252 31.5853,-4.25068 14.57278,-1.60383 30.71444,5.56054 36.17724,19.79511 10.8387,-5.92459 25.2255,-7.61551 37.015,-2.29598 -0.073,-3.02724 0.2731,-6.10027 1.1791,-8.99778 2.241,-9.49986 13.2226,-12.03131 21.7188,-11.44889 1.03,-0.15897 2.0789,-0.24855 3.1336,-0.27925 z m 1823.8494,538.03606 c 2.047,0.01 4.0767,0.1992 5.9571,0.5584 9.8636,-1.8416 18.3945,7.4439 18.9263,16.8166 6.9075,1.1681 14.0167,3.9397 19.2056,8.9667 12.7255,-10.5488 32.4394,-12.2119 46.292,-2.8545 4.1342,-4.1717 10.3202,-5.1301 15.9478,-5.1814 8.4773,1.4419 16.7139,-0.5035 25.1317,-0.8067 4.8958,-0.9501 8.7902,4.2914 13.4036,1.7685 8.2008,-3.683 16.5431,0.096 24.9766,-0.4965 10.0984,-2.2752 24.4448,0.2242 27.0244,12.0075 0.9185,16.0964 0.5824,32.2766 0.4654,48.4018 0.054,16.4095 -12.2107,31.2505 -28.1104,34.8432 -12.1892,2.7848 -26.2029,2.1226 -37.0149,-4.561 -4.8913,-3.5548 -6.3731,-11.0443 -7.2292,-15.6685 -9.6689,4.1993 -22.1121,5.6631 -31.7715,0.3723 -15.7755,5.944 -35.4933,6.3749 -49.1155,-4.8092 -6.5375,5.5672 -15.2567,10.1448 -24.2009,8.7495 -9.6892,-3.8424 -20.3943,1.9467 -30.003,-2.358 -8.8706,0.9875 -19.2846,3.8137 -27.5828,-0.8998 -9.2831,2.5597 -21.2143,4.617 -30.4062,-0.6515 -11.7504,4.0699 -24.9851,5.8331 -37.0461,1.7995 -2.9151,-0.015 -5.2495,-4.9998 -7.4464,-1.2411 -11.6525,4.0784 -25.6479,3.9386 -36.5496,-2.1409 -1.4655,1.3652 -4.0924,3.0738 -6.5467,3.4751 -7.9601,1.3211 -16.9338,2.7136 -24.4801,-0.8066 -9.2466,1.5705 -19.5594,4.012 -28.7929,0.062 -13.0018,4.1406 -28.1787,4.3194 -40.1798,-2.9475 -2.6207,2.5204 -6.1757,3.9008 -9.7423,4.4679 -13.9351,0.6491 -28.0308,-0.1814 -41.9793,0.093 -11.4828,-0.6064 -26.2309,3.8 -34.4088,-6.8878 -5.5641,-19.2104 -1.9391,-39.7792 -2.6682,-59.5715 -2.3462,-10.0081 0.48,-23.5398 11.5109,-26.9313 10.1783,-0.4953 23.1424,-3.2177 30.9027,5.3055 6.928,13.5301 3.0069,29.524 3.5371,44.1202 2.5485,1.9432 2.9777,-2.2786 1.9547,-4.3748 1.7502,-13.0661 -2.6482,-26.8962 2.1098,-39.6213 4.8599,-10.219 18.2685,-8.6647 27.6449,-8.5944 10.2405,0.01 16.8344,10.65 16.196,20.1985 5.4661,-1.6887 12.1215,-3.4666 18.3988,-3.1959 2.0705,-0.9346 7.7159,2.3569 7.3534,-0.6824 -0.9339,-10.7503 10.8441,-17.3324 20.5088,-16.5994 1.583,-0.071 3.1727,0.02 4.747,0.1861 10.0573,-1.7822 20.3881,6.5595 20.2605,16.8786 2.6621,1.7139 7.0979,0.5845 9.9907,2.6373 0.9713,-9.9251 12.5427,-15.9095 22.2152,-15.0791 8.6924,-0.5121 19.1676,2.1309 22.4324,11.2938 -0.5203,4.5757 5.0134,3.1438 7.6016,4.9953 12.5681,-4.1571 27.8475,-5.7156 39.5591,2.0478 4.1328,-2.9786 10.0414,-5.1614 15.6376,-4.7781 10.76,1.568 21.6608,-2.2351 32.2989,0.3412 3.8218,2.2398 1.1241,-3.9579 2.4822,-5.895 2.2022,-9.2568 11.7308,-12.7832 20.6018,-12.752 z m -2213.04976,79.6768 c 1.25733,0 2.49887,0.015 3.66117,0.031 10.0798,-0.6435 18.22954,8.7882 18.0576,18.492 10.21093,-1.6385 21.08184,-2.2258 30.90271,1.5824 2.5004,-0.142 4.77507,4.6233 6.67077,2.1098 6.82911,-5.1135 16.64728,-4.3591 24.79042,-3.444 3.23093,-0.5903 5.3524,4.0136 8.06698,0.8068 7.89902,-1.539 16.76654,-2.442 24.66631,0.093 11.28228,4.008 11.0943,18.0159 10.54912,27.9242 -1.64197,12.7511 2.04065,25.7781 -1.14799,38.3491 -3.42307,10.9908 -16.94265,12.3792 -26.68306,10.9835 -10.4469,0.2655 -22.41422,3.3791 -31.77146,-3.3509 -4.58964,1.9106 -10.60707,4.1976 -16.25805,3.6301 -12.34298,-1.8129 -26.05418,4.4427 -37.32526,-3.0405 -4.29401,2.3789 -9.25679,2.9625 -14.1172,3.0095 -12.3737,-1.5993 -26.09811,4.3207 -37.35629,-3.1958 -2.36371,-2.9544 -3.43066,2.619 -6.3605,1.9238 -8.56259,1.4101 -18.07541,2.8076 -26.1556,-1.086 -6.464,2.2641 -13.9109,2.9554 -20.97413,2.2029 -8.46034,-2.9164 -17.32937,1.7522 -26.09355,-0.1552 -11.31493,1.5004 -24.57236,2.6409 -33.97436,-5.3986 -4.23187,2.5886 -8.79356,5.2166 -13.77591,6.2674 -4.3439,-0.7791 -3.59991,3.2332 -4.623,6.1433 -2.96856,10.4045 -15.52102,11.5215 -24.60426,10.9214 -11.33204,1.977 -20.78986,-8.9221 -20.29154,-19.7951 -5.97241,2.3396 -12.45406,3.3716 -18.8643,3.2579 -11.67716,-1.3985 -26.15737,-1.8774 -33.72615,-12.3798 -3.70918,-9.7498 -4.80147,-22.3135 1.24107,-31.4922 -5.02201,-10.1579 -5.77065,-22.6497 -0.96183,-33.0126 7.10346,-16.6931 27.59769,-21.7992 44.12013,-19.0503 10.08834,0.9735 22.93342,4.7419 24.97659,16.289 4.2175,-0.4914 8.49404,-0.5473 12.72099,-0.1241 10.7006,-0.8433 23.61751,-2.964 32.392,5.0263 3.77807,-2.7534 9.6398,-4.2499 14.61363,-5.2435 11.57161,-1.9977 24.87211,-1.8015 34.87414,4.8401 6.66264,-5.5924 16.64035,-5.3885 25.10069,-4.4367 11.69242,-2.0698 25.50943,-2.2485 34.68798,6.6087 5.3789,-3.6195 11.11263,-7.4092 17.74734,-8.005 2.0367,-0.8609 0.53675,-5.3463 2.42009,-7.3533 3.5172,-9.1328 14.00345,-9.947 22.80471,-9.9286 z m 2750.06186,63.6361 c 8.8579,-0.064 16.038,8.1418 16.6923,16.8475 4.4841,1.6723 10.2395,2.0696 14.3655,5.2745 8.5031,-6.2145 19.7887,-2.7613 29.5996,-4.0024 12.1212,-2.5472 26.4134,0.9016 32.8573,12.2556 8.5308,12.6877 5.3276,28.4217 6.1124,42.7549 0.5004,8.4566 -0.8859,19.3898 -10.301,22.3703 -7.3686,2.0734 -15.5236,2.2022 -23.0528,0.8688 -3.4184,-2.6327 -6.9143,-0.1012 -10.7043,0.2482 -6.2763,0.3382 -13.4506,1.8466 -19.2367,-1.0859 -8.789,0.955 -19.4701,3.9866 -27.8311,-1.024 -6.369,3.1185 -14.36,2.7925 -21.4084,2.5133 -6.3447,-2.3881 -12.8363,0.2956 -19.4538,0.1861 -11.4712,-1.9797 -24.0696,4.1631 -34.6259,-2.4511 -5.8138,2.1893 -12.1299,2.3206 -18.2748,2.265 -10.1975,-1.1338 -20.5861,1.1563 -30.7166,-0.7758 -3.592,0.195 -6.6314,-5.8339 -9.184,-1.6753 -6.556,2.8552 -14.4169,2.8237 -21.5325,2.42 -6.637,-2.6843 -13.36,0.6847 -20.2605,0.2172 -11.6309,-1.5394 -24.3059,3.8171 -35.1535,-2.7924 -4.8221,1.1383 -10.6074,3.4782 -16.1649,2.6683 -8.2905,1.1033 -18.1717,-1.2238 -21.936,-9.5872 -0.091,-2.7525 -1.4273,-3.2349 -3.8163,-2.2961 -3.436,3.0941 -5.5332,9.2776 -10.8284,10.8284 -10.1943,1.1484 -23.0881,3.5237 -31.1819,-4.592 -5.5574,-9.1439 -4.1728,-20.8322 -4.1576,-31.1509 1.1667,-13.9585 -0.7234,-27.9191 0.2483,-41.8552 0.042,-9.7791 9.5427,-15.9061 18.6781,-15.8857 9.4785,0.5453 21.3029,-1.6666 28.1723,6.6708 6.5202,-7.2179 17.9002,-7.1481 27.1175,-6.2054 9.7992,-2.0483 19.4278,6.0353 20.2605,15.7926 12.463,-2.6345 26.4639,-2.6721 37.6045,4.3128 4.0977,-4.1444 10.3383,-5.0622 15.9477,-4.9333 10.7645,1.4991 21.3827,-1.5168 32.1749,-0.093 13.6234,2.3606 27.7228,-2.3778 41.0484,1.7996 11.223,-1.8037 23.2101,-4.3677 34.5329,-1.2101 3.6781,1.6922 5.8915,1.9468 5.3366,-2.8234 0.5635,-8.7909 8.0529,-16.3178 17.1579,-15.6375 3.0419,-0.1285 6.0795,0.1034 9.1218,0.093 0.9475,-0.1923 1.8761,-0.3036 2.7925,-0.3101 z m -1560.5247,27.9241 c 5.2664,0.1143 10.7721,1.5062 14.3033,5.6158 8.952,-1.2498 19.7678,-2.2448 27.0554,4.4369 4.4378,-3.674 10.6118,-5.394 16.4442,-5.2747 9.0308,-0.9878 20.1922,1.4884 23.7045,10.9836 -0.4283,4.4139 4.8725,3.409 7.4464,5.0573 6.2777,-0.7789 12.9448,-4.2283 19.7951,-3.6611 22.7263,-1.0352 40.2046,22.4795 37.5114,44.0581 -3.4876,7.5235 -0.5222,16.3729 -3.9093,23.9217 -5.4905,7.8088 -15.7011,11.124 -24.8214,12.5968 -9.2606,0.8899 -19.779,0.6608 -27.8311,-4.4368 -9.4628,4.232 -21.2396,5.1243 -31.5853,2.296 -2.935,0.4221 -5.365,-4.4529 -7.5085,-0.9929 -11.8493,4.0603 -25.9955,4.0045 -36.984,-2.4512 -3.0854,4.062 -9.0549,3.6935 -13.5897,4.8092 -6.5874,1.5943 -13.1257,-1.4674 -19.4849,-1.179 -10.8031,2.1372 -25.3952,3.9064 -32.423,-6.7948 -1.501,-2.3153 -0.9455,-5.7929 -4.623,-3.7543 -3.462,3.3885 -5.7747,9.5786 -11.3558,10.9835 -10.336,0.8632 -23.8081,3.3635 -31.3682,-5.7089 -5.2552,-12.4424 -3.1964,-26.7131 -3.1957,-39.9626 1.2991,-11.1297 -1.5654,-22.3435 0.1862,-33.4158 0.8982,-9.072 9.6151,-15.0213 18.461,-14.5205 8.9702,0.8646 19.6127,-2.2156 26.745,5.0573 2.2255,3.8034 4.2391,-2.7413 7.3223,-3.1648 9.1005,-2.0938 19.0308,-2.4761 28.3586,-0.9928 5.6319,-3.4844 12.6349,-3.5332 19.1125,-3.475 0.7365,-0.032 1.4816,-0.047 2.234,-0.031 z m 1700.5796,6.1743 c 3.2313,-0.027 6.4891,0.4168 9.4943,1.6134 10.6083,3.8045 11.0628,17.3669 9.9596,26.8071 0.045,10.5114 -10.382,16.7441 -20.0433,16.3202 -10.0649,-1.3592 -21.9734,2.461 -30.4063,-4.7782 -7.1806,-9.0526 -7.0111,-22.9024 -1.8305,-32.9505 7.2542,-10.0948 21.1228,-5.7145 31.4611,-6.9809 0.4598,-0.022 0.9036,-0.027 1.3651,-0.031 z m -304.5281,72.0752 c 3.4914,-0.028 6.9755,0.377 10.3009,1.4583 6.4501,-0.1309 13.289,-1.8737 19.9813,-1.2101 10.8218,-1.0873 18.7698,9.6082 18.3678,19.7642 11.1721,-3.5373 26.2357,-4.2189 37.0151,3.1647 3.7735,-3.9283 9.418,-4.7723 14.6136,-4.9022 7.6914,0.5433 15.3406,0.7737 22.9598,-0.8377 5.9948,-1.5453 10.8795,3.8301 16.7856,1.272 11.8356,-2.1816 25.307,-2.1095 35.9911,4.2507 5.4212,-1.5653 10.5168,-5.7974 16.5682,-5.7399 0.1624,-2.7934 0.4658,-5.5982 1.7686,-8.1291 4.765,-10.1841 18.0744,-9.0159 27.4897,-8.8427 10.2552,-0.061 17.1017,10.3008 16.7235,19.9194 11.5503,-4.0856 26.5368,-4.2486 37.5735,2.9164 2.8143,-2.5987 6.5352,-3.9281 10.2698,-4.5298 8.8245,-0.7688 17.8148,1.2748 26.59,-0.9309 3.4424,-6.7465 9.543,-12.9367 17.0957,-15.4203 10.0618,-2.1381 21.5958,-3.9724 31.182,0.8067 10.4245,6.6543 7.6272,20.7229 6.4225,31.0579 1.4621,9.0267 0.2047,20.8033 -8.9667,25.3798 -4.9641,0.6592 -1.4844,6.8743 -2.1408,10.3009 0.8703,9.5106 -0.1755,22.2898 -10.5802,26.1557 -10.2871,1.5805 -23.9098,3.8964 -31.4921,-5.2746 -1.7884,-1.148 -3.8749,4.274 -6.5777,4.654 -9.983,2.8373 -22.7151,4.2278 -31.3372,-2.9165 -12.9319,7.2569 -30.4362,8.3395 -43.0341,-0.031 -6.6502,5.699 -16.5188,5.2853 -24.9145,4.4059 -11.2557,2.0464 -24.2651,2.2587 -33.5711,-5.5228 -5.0202,3.2341 -10.6804,5.5966 -16.5993,6.5157 -11.9753,0.3727 -25.7584,1.2146 -35.774,-6.6088 -2.4198,1.6915 -5.2637,4.4992 -8.5634,5.3677 -8.5636,0.5968 -18.1692,2.1348 -26.0935,-2.2029 -13.4364,4.4808 -28.9238,6.0243 -41.9483,-0.5585 -2.3403,-2.5366 -3.8386,-0.1913 -6.0192,1.21 -8.239,2.9371 -17.912,3.1322 -26.3418,0.8068 -9.6796,0.62 -20.8376,4.1189 -29.9408,-1.6134 -13.4073,4.7779 -28.9596,6.1499 -42.0414,-0.3723 -3.6674,-4.0059 -6.2166,1.6305 -9.9595,2.5131 -9.7173,0.7187 -21.297,3.2002 -29.6307,-3.413 -4.7463,4.0884 -11.4747,4.6226 -17.5301,4.3127 -8.5205,0.741 -19.454,-1.2933 -22.4324,-10.6111 -2.918,-22.3047 0.052,-45.0101 -1.3962,-67.3902 0.422,-10.1473 10.1864,-17.2988 19.9813,-16.4443 6.968,0.4676 15.3512,-0.8086 20.912,4.1887 5.9317,-4.0062 14.7626,-4.5683 22.3083,-3.9715 10.2991,-1.5208 19.217,7.5624 19.4538,17.5923 9.5352,-3.6437 22.1406,-4.7777 32.2369,-0.1241 1.0212,-2.2804 0.6601,-7.344 2.3891,-10.4561 2.8163,-8.6568 12.6821,-9.4816 20.4156,-9.9286 0.4978,-0.022 0.9905,-0.027 1.4893,-0.031 z m -724.3211,149.3942 c 7.1928,0.067 14.2016,4.1027 16.7856,11.1387 1.9166,2.0595 0.1663,7.5182 3.1027,7.3533 11.2593,1.2935 22.9252,-2.9216 33.8502,1.086 15.3539,5.7586 20.1492,23.8693 19.3918,38.7524 -1.6789,11.399 3.5938,25.366 -5.5538,34.595 -8.0836,5.9099 -19.5035,4.9556 -28.855,3.5059 -2.1459,-2.6794 -4.1037,-0.4284 -6.6707,0.062 -7.6441,1.0234 -15.9844,2.1785 -23.2701,-0.9308 -6.128,1.4145 -13.1745,2.5072 -19.8262,1.7685 -6.1365,-2.4633 -12.172,-0.2089 -18.4298,0.2793 -12.1215,-2.6019 -26.1513,4.6401 -37.0771,-3.1958 -5.9543,3.0801 -13.904,3.2619 -20.8191,2.8545 -3.9268,0.8884 -7.1346,-3.6789 -10.6732,-1.5204 -9.1012,1.8896 -20.033,3.5448 -28.5447,-1.5823 -9.0837,3.8712 -19.2982,5.0703 -29.103,3.7232 -5.2238,-2.0367 -1.109,3.1018 -1.2411,5.9882 6.9988,1.2001 13.9845,3.8215 19.1435,8.8426 12.8761,-10.3276 32.4965,-12.0732 46.4471,-2.8234 4.2275,-4.3058 10.6754,-5.0357 16.4132,-5.0884 9.9824,2.2474 19.9893,-2.5479 29.9099,0 6.1302,4.079 12.5653,-1.8391 19.1745,-0.8688 11.3735,3.9169 24.3507,-3.0643 34.7501,4.2817 8.9283,5.4672 5.8773,16.9633 6.7018,25.6593 -0.2245,13.6824 1.2336,27.6958 -1.3962,41.1725 -4.5264,17.2853 -22.5586,27.8649 -39.8384,26.9623 -9.5914,-0.7207 -21.5843,-1.3096 -27.4588,-10.1148 -2.5187,-3.0987 -2.8778,-8.9764 -3.7543,-11.4179 -9.8974,3.8333 -22.1777,5.5122 -31.8956,0.093 -15.6267,6.2146 -35.2993,6.3673 -48.8671,-4.7161 -5.7972,5.0745 -13.1697,8.6265 -20.9431,8.9667 -7.6372,-1.0967 -15.505,-2.0211 -23.3632,-1.1789 -14.3407,-1.5186 -28.7593,0.6165 -43.1894,0 -11.0765,-1.6634 -22.2013,0.375 -33.3537,-0.031 -10.5819,1.4 -22.8544,2.3981 -31.7405,-5.0264 -15.8101,7.9487 -36.295,9.2951 -51.2563,-1.241 -2.3708,-0.6471 -5.4223,-7.17 -6.2364,-3.0096 -3.8938,9.4894 -16.3504,9.5949 -25.1007,9.37 -11.7858,-1.848 -25.3528,3.5189 -35.6499,-4.3747 -2.486,0.4322 -4.8849,3.7802 -7.9118,4.1576 -10.3528,2e-4 -24.198,2.674 -31.0268,-7.1672 -4.6187,-15.4813 -2.228,-32.2803 -2.5132,-48.3088 0.8312,-10.1833 -2.182,-21.1702 2.2339,-30.7475 -7.8005,0.3899 -18.2547,1.2189 -24.1077,-5.9571 -5.8651,7.2915 -16.842,5.9704 -25.2248,5.895 -17.9864,-1.4392 -3.9736,0.575 -34.3158,-0.2483 -10.1839,0.257 -23.5565,2.8249 -30.7164,-6.4535 -5.6538,-15.5074 -2.4646,-32.6347 -2.8545,-48.8361 0.9,-11.3846 -4.0524,-25.6023 5.4607,-34.5329 13.3757,-7.1916 29.4516,-3.0238 43.996,-3.7233 9.8395,-2.8334 20.2298,5.0451 21.4396,14.9859 4.5958,0.2414 9.4402,1.0405 14.1482,0.6517 5.3578,0.8857 3.8857,-5.1561 5.5848,-8.4393 3.0769,-10.3102 15.5868,-10.5641 24.4491,-10.1148 11.5035,-2.1079 20.7394,9.1276 19.9813,20.0123 13.2288,-5.0169 29.591,-3.849 40.6762,5.4918 5.2198,-2.4702 11.2036,-7.8975 17.9956,-8.1911 3.4612,1.3106 1.869,-2.2307 2.3269,-4.2197 2.1747,-11.8614 16.5394,-14.8589 26.7761,-13.0312 10.1557,-1.6089 19.0859,7.9675 18.8954,17.8714 5.5977,-0.042 11.1998,1.1517 16.7856,0.3413 2.2728,-1.1558 0.9027,-5.9028 2.7303,-8.2531 4.2457,-11.1987 18.5131,-10.9779 28.4516,-9.7114 10.2758,-0.328 16.5655,10.5101 15.9788,19.8261 6.7009,-2.0113 14.7143,-3.8928 22.1841,-3.0096 3.8658,1.5401 3.9059,-0.4078 3.5681,-3.7232 1.9982,-11.6982 15.935,-15.1073 26.1556,-13.4036 9.8909,-1.7652 18.9469,6.9128 19.64,16.5373 5.4237,1.9464 12.3064,2.8721 16.9717,7.1672 10.0627,-6.4898 22.702,-7.9993 34.3467,-5.9262 4.2541,2.2368 2.1636,-2.9068 3.2268,-5.3055 2.2261,-11.0546 15.5794,-13.9921 25.2868,-12.5038 10.2008,-1.8852 19.6819,6.9781 20.1365,17.0027 5.2399,1.3527 11.4683,1.7224 15.4512,5.895 11.3625,-5.8652 25.9405,-7.5866 38.7526,-4.4988 2.9198,0.3798 7.429,4.0037 5.8641,-1.2411 -0.7276,-9.9415 8.7756,-17.394 18.1506,-17.4681 2.1246,0.012 4.2648,0.022 6.3915,0.062 1.0223,-0.1554 2.0441,-0.2267 3.0716,-0.2172 z m 114.396,34.3467 c 5.4585,0.1158 11.1169,1.7194 14.8308,5.864 4.676,7.5925 4.974,17.6097 3.0716,26.1867 -2.433,11.7743 -16.3546,13.7177 -26.3108,12.3487 -8.9455,0.4094 -20.4487,1.3696 -25.9694,-7.4776 -4.0666,-8.9902 -4.131,-20.2698 0.1241,-29.2582 7.209,-10.2619 21.2647,-6.9178 31.9266,-7.6326 0.7652,-0.04 1.5473,-0.047 2.3271,-0.031 z m -321.1896,70.7412 c 5.7103,1.7239 3.3234,-5.3415 5.6158,-8.6256 -7.6871,1.2504 -15.9574,2.0332 -23.27,-1.2411 -33.0511,7.1256 -38.0998,9.8578 17.6542,9.8667 z m -1234.464,44.027 c 1.3103,0 2.5712,0.067 3.7854,0.1241 11.0945,-1.1351 19.2814,9.8518 18.7711,20.2295 10.6416,-3.729 23.8625,-5.0656 33.7882,1.179 0.4064,-5.5543 3.7465,-12.5311 9.7735,-14.7688 10.0885,-2.3148 22.8535,-4.0847 31.306,3.413 4.9131,-3.3788 12.1263,-6.2484 18.8333,-5.3677 8.4677,-0.8001 18.3653,2.4899 21.5016,11.2007 -0.5382,4.5333 4.9616,3.0248 7.4464,4.9022 12.6319,-3.9171 28.0716,-5.7938 39.8074,2.1719 3.8332,-3.0306 9.4684,-5.0573 14.7688,-4.8712 10.4482,1.5001 20.9094,-1.7243 31.306,-0.093 3.7207,1.8021 4.5824,0.745 3.9095,-3.2268 0.7463,-9.6329 10.6145,-15.2818 19.6089,-14.8308 2.1886,-0.091 4.4009,0.021 6.5777,0.2482 9.975,-1.7837 19.1443,7.2195 19.609,17.0027 4.5221,1.1188 10.1822,1.8353 14.0551,5.1194 2.1029,-2.4158 5.955,-3.0722 9.1219,-3.6611 7.0927,-0.5128 15.2083,-1.8325 21.6257,1.7995 6.9403,-1.8038 14.5467,-3.4014 21.8739,-2.0167 6.2908,3.0169 12.6247,-0.896 19.1745,-0.4344 10.6339,2.6749 21.9013,-3.9132 32.0197,1.5204 5.0241,0.6131 10.5387,-3.0586 15.9788,-2.2339 10.723,3.802 22.5825,-2.4894 32.7954,3.1957 9.8774,4.6537 8.3672,16.7229 8.2841,25.7522 -0.8563,16.1262 2.9905,33.3456 -3.8163,48.588 -9.2201,18.8004 -33.5138,24.221 -52.3112,18.399 -9.5532,-1.2801 -15.9609,-10.3724 -15.9478,-19.7021 -3.0664,1.7289 -7.8478,3.2025 -11.9454,3.3199 -6.2305,1.3435 -12.26,-0.1971 -18.3057,-1.3962 -6.997,2.5262 -14.4509,1.4311 -21.7498,1.21 3.0917,7.6699 0.7907,16.0204 0.2482,23.8907 1.5579,8.9793 0.1479,20.6481 -8.9357,25.1938 -4.964,0.6589 -1.4847,6.905 -2.1409,10.3319 0.8702,9.5105 -0.1754,22.2896 -10.5801,26.1556 -10.3876,1.6574 -24.2575,3.8145 -31.7094,-5.5848 -1.6757,-0.1043 -3.6553,4.2803 -6.1743,4.9021 -10.0819,2.8875 -22.8417,4.3378 -31.5543,-2.8854 -13.0244,7.424 -30.4857,8.3516 -43.2204,-0.2173 -6.4147,6.0863 -16.0704,5.4844 -24.2319,4.6542 -11.3232,1.8898 -24.5909,2.3415 -33.9744,-5.5539 -4.8678,3.0782 -10.3085,5.406 -16.0099,6.3915 -11.2011,0.6535 -23.452,0.9749 -33.6331,-4.4989 -2.4157,-2.8247 -3.9304,-1.56 -5.9571,0.9309 -9.4872,4.3088 -21.552,4.944 -31.0888,0.1861 -13.4049,4.2665 -28.9182,6.1755 -42.0104,-0.3724 -2.6027,-2.7978 -4.4089,0.5519 -7.0741,1.5204 -8.2999,1.9853 -17.902,3.324 -26.1245,0.031 -8.5574,1.2443 -18.2233,3.6609 -26.8382,0.1551 -8.5182,0.6763 -17.8093,3.647 -26.3108,0.062 -5.2138,0.1684 -10.7614,2.0586 -16.2269,1.6755 -4.5715,1.1325 -8.9951,-3.1566 -13.3106,-1.2721 -8.3452,1.2999 -18.15052,2.698 -26.00046,-1.6134 -2.73692,-3.8978 -5.1711,0.5456 -8.25313,1.5203 -9.74086,1.569 -20.7702,3.0423 -30.00293,-1.5203 -2.54189,-3.1818 -4.369,1.571 -7.07412,1.9547 -10.86948,0 -24.13606,3.8916 -33.07458,-4.4368 -7.04996,-13.6568 -8.78801,-29.4966 -12.00738,-44.4304 -0.96698,-9.8941 -5.57399,-19.1043 -5.77099,-29.0411 0.35879,-9.6661 9.69172,-16.7167 19.11252,-15.7927 -16.16481,-12.8826 -21.34674,-36.1759 -15.35827,-55.4449 6.25588,-25.6048 37.72969,-38.3025 61.27796,-28.855 5.75768,-4.857 13.71451,-4.9373 20.88105,-4.4368 10.05477,-2.0406 19.4406,6.609 20.1364,16.4442 2.38862,2.0029 7.20328,1.1088 10.20783,3.1027 2.2551,0.097 4.2118,3.7304 5.8641,2.8545 14.9993,-6.7599 34.3429,-8.4841 48.8051,0.5584 7.9442,-8.0607 20.3239,-3.6295 30.3443,-4.716 5.0105,0.8706 1.6941,-4.3742 3.3819,-6.95 2.73,-9.9581 13.5712,-11.6953 22.7426,-11.6661 z m 496.9876,34.2225 c 3.5071,0 7.0727,0.5141 10.2388,1.9547 10.2044,4.4156 10.1385,17.943 8.9357,27.3346 -0.2407,11.744 -13.4538,16.5684 -23.4563,15.3274 -9.5799,-0.952 -21.9037,2.3513 -28.6377,-6.795 -4.9411,-9.0351 -4.8242,-20.972 -0.4964,-30.2512 7.298,-10.1613 21.2606,-6.8517 31.9266,-7.5394 0.4967,-0.022 0.9882,-0.03 1.4893,-0.031 z m -674.95737,11.1697 c -1.83027,2.5449 -1.45121,6.0544 -0.49643,8.8737 3.18625,1.5247 6.34547,-3.6907 9.68037,-4.0336 -0.9334,-1.348 -6.17763,-4.2366 -9.18394,-4.8401 z m 242.97097,43.4686 c -12.2781,10.2289 -30.6532,12.4133 -44.9268,5.1194 -3.3029,-3.7015 -5.6074,2.288 -9.4631,2.265 -9.1731,0.9266 -19.8042,3.0661 -27.7691,-2.9786 -2.2902,-3.8753 -3.8256,-0.2646 -6.2674,1.3961 -6.929,3.0982 -15.2936,2.9574 -22.7116,2.203 -4.9642,-2.4358 -9.8656,0.5777 -15.0791,0.2792 -3.1501,0.6198 -9.7152,-1.9602 -6.3915,3.2578 0.4811,3.0626 0.6532,5.9962 4.685,4.4059 10.4365,0.7935 21.5856,-3.2655 31.4302,1.7065 11.4335,-4.8771 25.9192,-3.0151 34.9362,5.833 10.7083,-8.1138 25.3711,-10.7888 38.1941,-6.6708 3.0822,0.3392 6.2255,3.9685 8.7805,3.3199 9.7021,-7.7184 22.6647,-2.0037 33.6642,-4.7782 5.3853,-1.2406 10.5354,0.072 15.5753,1.5514 13.4278,-2.522 28.8183,-3.7139 40.9554,3.8783 4.3795,-2.2622 8.8141,-4.9333 13.714,-5.6779 4.0575,0.8208 2.3375,-4.0961 3.4439,-6.4225 -4.1061,-0.8949 -8.6536,-1.1662 -12.0384,-4.0025 -9.8671,4.3332 -22.0599,4.9727 -32.7023,1.8616 -2.515,-1.571 -5.251,-2.468 -7.7256,-0.1551 -13.0344,3.9223 -29.1402,3.1798 -39.9316,-6.0503 l -0.3723,-0.3412 z m 152.4658,5.9571 c -4.5613,2.1768 -9.7706,2.325 -14.7377,2.3891 -3.4807,0.1062 1.1113,6.5854 -0.031,9.6493 12.075,-4.804 26.6588,-4.4275 37.7286,2.7615 6.6895,-6.7497 16.8771,-4.4628 25.349,-4.4369 4.0387,-0.733 10.0808,0.8429 12.4727,-2.6994 1.1328,-2.5422 4.6984,-5.3952 -0.4343,-4.1575 -10.203,-3.8658 -21.3932,0.9909 -31.7405,-2.4202 -9.346,0.8906 -19.5597,3.1221 -28.6067,-1.0859 z m 743.6818,219.9492 c 9.1253,-0.058 17.1802,8.075 17.5611,17.2819 6.71,0.9892 13.7509,3.5149 18.7402,8.4702 12.6372,-8.8186 30.5476,-11.8197 44.3373,-4.0644 2.196,-3.6026 3.9417,-8.3413 7.2913,-11.542 6.8851,-8.7474 18.448,-9.9106 28.7929,-10.0527 3.1845,-0.069 6.4389,0.1093 9.4943,1.0549 10.5359,2.1361 13.6634,14.1464 12.1003,23.4253 -1.474,6.7946 -0.5198,13.5356 -0.7446,20.3225 2.0977,-7.0652 9.9536,-10.2757 16.7545,-10.5491 9.017,0.5157 18.3772,-1.4488 27.1175,1.3341 10.7615,3.5409 11.4076,17.3612 10.2078,26.8383 0.3129,10.4847 -10.3192,16.753 -19.7641,16.3201 -8.5667,-1.1172 -17.5044,1.3873 -25.7833,-1.7685 -10.682,-3.9037 -10.9017,-17.2091 -9.8976,-26.7142 -1.7084,4.376 -5.0652,8.2307 -9.5252,9.8975 -2.0854,4.368 -0.158,10.9241 -0.6516,16.103 1.2775,8.2859 -3.1995,17.3175 -11.542,19.7951 -9.6921,1.6419 -21.8674,3.1238 -29.6305,-4.3437 -3.2165,1.63 -6.8683,3.6407 -10.5802,4.654 -10.7503,2.9742 -23.5552,2.5814 -32.9194,-3.8473 -1.6536,0.061 -3.764,3.2092 -6.2674,3.3818 -7.0342,1.2112 -14.5721,1.9349 -21.5947,0.3724 -2.0245,-0.2404 1.6128,4.8427 1.0239,6.8569 6.5,2.1793 14.205,4.0128 19.3917,9.277 12.8701,-10.2501 32.3228,-11.9479 46.2921,-2.9164 4.3601,-4.3361 10.8926,-4.9007 16.7235,-4.9643 10.0042,2.0952 20.0172,-2.5443 29.9408,0.031 5.4865,3.8419 11.3784,-1.2935 17.2819,-0.9308 7.552,1.3977 15.0902,1.7978 22.7116,0.6516 9.8365,-0.7734 21.4423,6.1523 20.1675,17.1887 -0.011,16.4051 1.3233,32.9692 -0.5275,49.3017 -1.9996,18.7697 -20.8352,31.4483 -38.8455,30.9957 -10.1887,-0.5596 -23.0155,-0.8669 -29.1963,-10.3319 -2.434,-3.0942 -2.7281,-8.9055 -3.6922,-11.2627 -9.7766,4.0151 -22.1632,5.5064 -31.8335,0.1551 -15.654,6.2064 -35.3276,6.3355 -48.9292,-4.7471 -6.5269,5.6893 -15.1531,9.8148 -24.0149,8.8116 -10.9999,-3.73 -23.4893,2.4599 -33.8502,-3.8473 -13.3403,4.537 -28.9524,6.1278 -42.0413,-0.4654 -2.181,-3.2246 -3.5359,-0.3336 -5.4918,1.0859 -9.1078,3.323 -19.8281,3.3699 -28.7928,0.031 -10.1648,2.9364 -23.3415,4.9037 -32.33,-2.5132 -12.9743,7.3696 -30.3122,8.2107 -43.0652,-0.031 -1.9998,3.3107 -6.3078,3.3639 -9.6494,4.2817 -6.9831,0.4878 -15.059,1.9784 -21.3154,-1.6754 -9.0606,2.0472 -19.7431,4.2169 -28.917,0.093 -14.6541,5.5978 -32.6308,3.9684 -44.8027,-6.3916 -5.9937,5.2901 -13.73,8.3406 -21.6257,9.308 -11.0775,0.9026 -22.5636,-0.9044 -32.8263,-5.0573 -10.3012,-4.006 -11.9825,-16.1406 -11.0455,-25.7832 -0.4625,-4.7584 1.5498,-8.8716 3.8783,-12.7521 -8.2843,-15.1766 -4.2448,-36.5172 10.394,-46.4471 3.0588,-1.3259 4.3209,-2.4339 1.6134,-4.9643 -5.3396,-13.0235 -1.9664,-27.6978 -2.4202,-41.3899 -6.4536,-0.9768 -15.5917,-3.884 -17.9956,-11.5729 -1.6485,-10.361 -3.0722,-24.9107 7.2293,-31.2441 18.1327,-4.0341 37.1138,-1.771 55.6001,-1.9235 9.5212,-2.1723 18.8781,5.3566 19.9192,14.8618 9.9748,-1.0923 22.2321,-1.3178 31.1819,5.1194 4.2424,-3.6523 10.0064,-5.0045 15.4824,-5.0884 11.5117,2.1703 23.7642,-3.4855 34.7191,1.9236 9.7298,-3.4414 21.7212,-4.0136 30.6234,2.265 6.6547,-4.8696 15.4312,-4.4538 23.2391,-3.6612 12.1656,-2.143 26.5093,-1.8854 35.9912,7.3533 11.5768,-8.8825 28.0618,-11.4228 41.5137,-5.4296 -0.015,-3.8821 0.575,-7.8475 2.1099,-11.3868 4.7132,-10.4127 18.1359,-8.9347 27.6139,-8.9357 7.2798,2.5344 14.6801,-0.8898 22.2152,0.031 0.9599,-0.1895 1.9105,-0.2733 2.8545,-0.2792 z m -286.7809,85.2306 c -0.8193,1.0449 -1.3607,4.2855 -3.1337,5.5228 8.8803,0.4034 16.1466,8.9392 16.6924,17.8093 8.6325,-4.5298 18.7815,-5.8465 28.3586,-4.1885 0.6046,-1.656 0.1118,-5.0689 1.21,-7.2604 -14.3363,3.156 -32.8792,0.5185 -43.1273,-11.8832 z m 190.6287,4.0025 c -4.7119,4.0663 -10.2627,7.3426 -16.4131,8.5634 -3.9879,-0.7596 -3.0022,3.1433 -4.0646,5.7399 0.1341,2.5274 6.9043,0.3783 9.6184,1.6444 11.5378,-2.5598 25.3643,-1.8927 34.1605,7.0431 11.702,-8.5468 28.0806,-11.1689 41.5449,-5.3056 0.1311,-3.2414 0.2637,-6.5324 1.3341,-9.6182 -5.3924,0.245 -12.0502,0.039 -17.0957,-3.1027 -15.5051,5.6257 -34.9701,6.3557 -48.619,-4.561 l -0.4655,-0.4033 z m -103.8777,7.3223 c -1.8425,0.1136 1.6955,4.879 1.0238,6.7948 5.4376,1.6165 11.7808,2.7146 16.5063,6.4847 0.6843,-2.536 -0.5874,-9.1842 1.1169,-13.2175 -6.174,-0.35 -11.5923,1.7779 -17.4991,0.1862 -0.5099,-0.1954 -0.8847,-0.2645 -1.1479,-0.2482 z m 1727.2628,209.6172 c 0.2816,-0.017 0.5499,-0.014 0.8377,0 7.6834,0.517 15.3537,0.3509 23.115,0.186 10.6514,-0.6936 17.3797,10.3022 16.9406,19.9813 5.2857,-0.7671 12.5038,-1.4923 18.523,-0.4033 11.7549,-2.5145 25.7281,-1.728 34.7811,7.2603 13.2059,-9.8174 32.6527,-11.9904 46.7264,-2.7924 4.1153,-3.801 9.8501,-4.9454 15.3272,-5.0264 11.1228,1.6709 22.5062,-2.5085 33.416,0.6826 1.5788,-0.9338 0.6393,-6.0417 2.2649,-8.3152 3.441,-10.2338 15.6874,-10.8027 24.7283,-10.3009 11.5273,-1.9078 20.7979,9.5974 19.8882,20.5087 7.8583,-3.3562 16.7179,-4.2781 25.1317,-2.8234 1.1256,-2.3839 0.6912,-7.1313 2.8855,-9.9596 6.446,-9.549 19.667,-8.159 29.6616,-7.4775 8.4117,1.706 13.686,10.1745 13.8381,18.1197 9.9001,-1.103 23.9696,-1.5737 29.103,9.339 4.6911,11.3453 -5.4027,21.6451 -13.6207,28.0793 4.6328,7.6874 15.2165,12.5702 16.227,22.6186 1.5241,9.4446 -6.1086,18.6114 -15.7926,18.2748 -7.72,0.279 -16.7148,1.7848 -23.5804,-2.2649 -9.0703,2.6466 -19.8752,4.3384 -29.1031,0.4343 -12.7815,4.5065 -28.0808,4.6634 -39.7764,-3.0096 -4.7989,4.7651 -11.9121,4.9567 -18.2438,5.1505 -4.8599,0.9518 -9.5993,-1.5192 -14.1172,-1.3963 -8.2379,1.301 -17.8284,3.3811 -25.3489,-1.117 -9.3079,2.9002 -21.2421,4.5773 -30.4063,-0.6515 -15.7296,6.0931 -35.356,6.3109 -48.8982,-4.8711 -3.3411,2.8377 -7.0174,5.3867 -11.1076,7.0119 -2.5996,2.1045 -8.2845,0.3843 -8.7806,3.8164 -0.817,13.6475 -16.4696,16.1651 -27.3346,14.6756 -10.7403,1.1315 -18.7671,-9.5034 -18.3679,-19.5158 -8.8743,3.2655 -18.8626,4.1053 -28.0172,1.4272 -3.7025,-2.5378 -7.3819,-0.857 -11.1387,0.4344 -9.9554,-0.2968 -21.3632,2.2442 -29.9408,-4.2196 -2.6039,0.1174 -5.2333,4.068 -8.5014,4.1575 -10.3357,0.038 -24.4309,2.5538 -30.9027,-7.8187 -4.4326,-20.0902 -1.7036,-41.0158 -2.1099,-61.4642 -1.722,-8.5634 0.3805,-19.1097 9.0909,-23.0839 9.0739,-2.4618 19.6237,-3.6037 28.4517,0.4964 3.1716,3.8744 5.8281,-1.3771 9.5562,-1.5512 7.6582,-0.206 15.6002,-1.6901 23.2081,-0.093 3.6112,-0.6661 7.1625,-4.2438 11.3868,-4.4988 z m -464.4714,3.661 c 9.1282,-0.036 18.1895,6.2755 17.9335,16.103 10.0526,0.6105 21.9142,-4.413 31.182,1.9548 12.127,-4.7 26.711,-4.7847 37.9146,2.4199 4.3216,-3.7743 10.3155,-4.7805 15.8858,-4.9021 11.7391,2.1196 24.4162,-3.7404 35.5878,1.9546 0.5284,-11.0448 13.3203,-16.5501 23.146,-15.4203 8.427,-0.6994 18.3069,2.6504 21.3775,11.3248 -0.4214,4.5896 5.3123,2.998 7.8187,5.0573 10.8127,-3.9993 23.6289,-5.6126 34.626,-0.8687 2.4423,2.0944 4.224,1.0575 6.6086,-0.4033 8.3856,-1.5242 17.7806,-3.1972 25.8764,0.3413 4.6804,-0.7856 9.8899,-2.416 14.9549,-2.0168 4.705,-1.0479 8.8234,3.3677 13.1864,1.4893 10.0747,-2.5327 24.2382,-3.4814 31.244,5.9882 5.1406,11.304 -0.5741,23.9401 -3.3199,35.1844 -3.9559,11.2193 -1.8718,26.2859 -12.9381,33.7882 -7.5857,2.7441 -16.3894,3.3589 -24.4492,2.0478 -3.8725,-2.1555 -7.6663,-0.6126 -11.697,0.1861 -10.0255,0.878 -22.9168,2.0591 -29.0722,-7.8498 -10.8849,8.8531 -26.3593,11.6062 -39.6832,7.1672 -3.1344,0.032 -5.389,-5.121 -7.9119,-1.3031 -13.0537,4.3039 -29.5601,3.8896 -40.6452,-5.3055 -5.4183,3.4738 -10.9046,7.6373 -17.468,8.3771 -3.6566,-1.3888 -2.3126,2.6926 -2.8545,4.8402 -2.6538,11.3882 -16.6563,13.3754 -26.497,11.8524 -10.4154,1.4545 -19.189,-8.3779 -18.6161,-18.399 -15.1454,4.5939 -33.7423,1.9486 -44.8027,-10.2388 -2.1482,4.693 -5.878,9.2307 -11.0765,10.6422 -9.9743,0.5299 -22.8163,2.8812 -30.034,-5.9571 -5.6331,7.626 -17.0945,6.9388 -25.9384,6.2673 -8.2221,0.5845 -15.7354,-5.4907 -16.5372,-13.7759 -1.3078,-11.8636 -0.7786,-23.9584 -0.1863,-35.867 -6.8206,0.4056 -14.1308,-2.875 -17.2819,-9.1529 -3.1762,-10.5432 -4.1899,-25.1517 5.678,-32.6091 18.1378,-5.5058 37.5242,-0.8728 56.1584,-2.8235 0.6063,-0.06 1.2221,-0.091 1.8307,-0.093 z m -594.4738,27.4278 c 4.8126,0.078 9.992,1.2013 13.3726,4.716 8.3701,-3.961 19.8415,-5.0548 29.1652,-1.6753 4.7839,-1.5174 10.0369,-1.9928 15.11,-1.8307 9.8233,-1.9269 20.4054,4.903 21.6257,15.0791 -0.5081,2.9438 0.096,3.9346 3.1027,2.9475 9.0626,1.3985 18.1865,-1.5764 27.2415,-0.2792 15.894,2.3037 24.5821,19.1211 24.6353,33.9433 -1.2235,12.0659 1.9508,24.7153 -2.0478,36.3635 -4.5875,9.5563 -16.459,9.0129 -25.442,9.0287 -4.9966,0.8991 -9.1229,-4.2125 -13.7448,-1.0548 -7.311,1.1899 -15.4969,2.2288 -22.5565,-0.6516 -8.4219,1.4099 -17.7115,3.2253 -26.0936,0.093 -10.419,1.2587 -22.9191,4.5561 -31.7714,-3.2268 -10.2859,5.6761 -23.2325,7.664 -34.5949,3.9095 -4.1086,-3.9428 -8.5342,1.0482 -13.1864,0.6205 -7.4966,0.1416 -16.0052,1.5564 -22.7427,-2.358 -8.7985,2.8802 -19.0802,4.2427 -28.1413,0.6825 -6.0733,2.2803 -12.8151,2.2788 -19.2366,1.6134 -11.1894,1.0916 -24.382,3.1322 -33.6331,-5.1194 -14.0814,7.5742 -32.0299,9.1093 -46.5402,1.7375 -3.4404,-3.8641 -5.5605,2.0404 -8.9668,2.6994 -10.1437,0.7287 -21.8877,3.2857 -31.0888,-2.6684 -4.2929,2.8083 -10.4937,4.0315 -16.0409,3.5681 -9.139,1.4454 -20.672,-1.7195 -23.3633,-11.6661 -2.0956,-20.9454 -0.049,-42.1716 -0.9928,-63.2015 -1.625,-11.1308 9.0978,-21.4034 20.1985,-19.2988 7.1204,0.3016 16.0138,-1.5103 21.6567,3.7854 6.1963,-4.1015 14.5759,-4.2684 22.029,-3.7233 10.1017,-1.3131 18.268,7.9244 18.6161,17.5301 10.3632,-3.9757 24.181,-4.8343 34.781,1.0239 2.1366,1.9199 3.2708,1.7839 4.8402,-0.5274 9.1639,-3.1467 20.1179,-4.4724 29.3515,-0.6206 4.7974,-1.6811 10.0227,-2.2449 15.1411,-2.0788 4.5871,1.7416 3.0467,-3.0602 4.0644,-5.7709 1.9542,-11.1148 15.3321,-13.424 24.7594,-12.3488 10.4274,-1.7492 20.4532,7.2299 20.4468,17.7164 2.9302,1.2411 8.5046,-0.2627 12.5348,0.4654 0.6007,-4.1602 0.784,-9.1958 3.7232,-12.752 7.5367,-9.9742 21.2668,-5.138 31.7404,-6.6398 0.6662,-0.027 1.3602,-0.042 2.0478,-0.031 z m 951.8717,4.1266 c 3.2312,-0.027 6.489,0.3857 9.4941,1.5823 10.7356,3.8643 11.0109,17.5726 9.9286,27.1175 -0.063,10.4115 -10.7812,16.5748 -20.2915,16.0718 -9.9824,-1.4852 -21.7075,2.4628 -30.065,-4.778 -7.3002,-8.8856 -7.0874,-22.9842 -1.9237,-33.0125 7.2545,-10.0951 21.1228,-5.6837 31.4612,-6.9501 0.4598,-0.022 0.9346,-0.027 1.3963,-0.031 z m -2237.4057,51.1011 c 1.923,-0.021 3.8524,0.1393 5.7399,0.4964 8.8299,-1.5258 17.2493,5.3482 18.9263,13.9 -0.6623,4.9946 5.1093,3.3755 8.2841,4.7161 1.423,-1.2687 0.8002,-5.8932 2.1099,-8.3462 3.6875,-10.8562 17.32,-11.0094 26.8382,-10.2388 10.5668,-1.022 18.151,9.7196 17.8094,19.5779 10.9971,-3.2602 25.9039,-4.3493 36.5185,3.0096 6.8277,-4.6749 16.5215,-5.6635 24.9767,-4.3127 11.7556,-1.8777 25.7344,-2.3541 34.9671,6.6708 5.5466,-3.6235 11.463,-7.971 18.3679,-7.8499 1.313,-1.887 0.2302,-6.1011 2.172,-8.4082 4.7851,-10.1833 18.0813,-8.8976 27.4587,-8.7805 10.3275,-0.011 17.1014,10.3531 16.7544,19.9812 8.8306,-3.1743 19.8072,-4.2588 29.2273,-1.0239 4.055,0.4952 7.6664,5.6974 11.1386,1.7995 10.5331,-5.9252 22.7516,0.017 33.9123,-3.4129 3.6979,-6.7019 9.6419,-12.9209 17.2199,-15.4204 10.0658,-2.1005 21.6319,-4.0373 31.213,0.8688 10.4177,6.6118 7.576,20.6962 6.3915,30.9958 1.4552,9.0227 0.2117,20.8004 -8.9667,25.3799 -4.964,0.659 -1.4847,6.9054 -2.1408,10.332 0.8701,9.5105 -0.1755,22.2896 -10.5802,26.1556 -10.3876,1.6574 -24.2885,3.8144 -31.7404,-5.5848 -1.6373,-0.023 -3.5668,4.0695 -6.0503,4.8091 -10.1126,2.9824 -22.8802,4.4421 -31.6473,-2.7614 -12.8462,7.2237 -30.0984,8.2867 -42.7239,0.1551 -4.127,2.38 -9.5149,5.1115 -14.924,4.6541 -11.573,-1.5156 -23.4205,2.8582 -34.75,-0.8377 -2.8839,0.1139 -5.7748,-5.2356 -7.5705,-1.6755 -8.0041,2.7997 -17.3063,3.4321 -25.7213,1.6755 -2.6591,-1.9773 -5.6406,-1.7671 -8.3772,0.1241 -8.4467,0.6545 -17.9693,2.1195 -25.7523,-2.2649 -13.2046,4.522 -28.4451,6.0369 -41.3277,-0.2483 -3.4355,-3.7645 -5.7115,1.6575 -9.4941,2.1099 -7.4697,1.0305 -15.5788,2.2637 -22.9289,-0.1241 -6.9953,-0.2336 -14.5993,2.6691 -21.7808,0.9307 -2.7323,0.8887 -5.3671,-3.0773 -7.5706,-1.8306 -9.3142,2.3932 -20.4426,4.0972 -29.3204,-0.9618 -11.951,4.1051 -25.4427,5.8501 -37.6354,1.5824 -2.7248,0.1408 -4.9051,-4.7721 -6.8569,-1.2411 -17.1192,4.6054 -35.5074,2.155 -53.149,2.2339 -9.0424,2.1023 -18.5338,-4.2978 -19.8882,-13.4966 -3.4801,-13.9008 5.4481,-26.5438 14.1793,-36.3324 -5.2979,-1.2628 -10.3244,-4.7646 -12.4418,-9.9286 -1.9414,-10.2899 -3.4968,-24.4476 6.3605,-31.3682 17.2979,-4.6375 35.6836,-2.1494 53.4282,-2.2339 9.6997,-1.8086 17.9766,7.1784 18.4299,16.4132 8.18,-2.6386 17.1538,-3.206 25.4731,-0.8687 2.7323,0.8566 5.7918,2.903 4.6229,-1.8616 -0.4867,-10.1882 9.5107,-17.0054 18.8953,-17.0648 0.6394,-0.042 1.2827,-0.086 1.9238,-0.093 z m -297.98162,0.1552 c 0.43571,-0.011 0.86709,0.017 1.30313,0.031 4.79912,-0.1463 9.85824,0.3264 14.08617,2.7614 2.23586,3.1407 6.00236,3.2008 9.4322,2.2649 9.97743,-1.8392 23.07402,1.802 25.62802,12.9071 5.3335,1.3995 12.5686,0.1525 18.5851,0.4655 8.971,0.9989 18.16,-1.3926 26.9623,0.8378 13.0604,5.22 14.4759,22.9739 8.3152,34.0054 -1.4097,2.8753 -4.4548,5.0871 -0.5274,6.8878 4.4276,9.2222 5.7577,21.6149 -0.3414,30.4994 -6.9376,7.9632 -19.0317,6.5561 -28.5756,6.3605 -16.553,-1.8902 -33.4604,2.5496 -49.73605,-1.6754 -2.86915,0.3438 -6.27201,-4.92 -8.00487,-1.6755 -8.35013,4.1728 -19.07882,4.9336 -27.95516,1.9237 -7.51487,0.8242 -15.41352,2.8153 -23.05292,1.0859 -9.3382,16.1209 -30.92289,21.7911 -48.46389,17.4681 -9.70906,-0.5489 -18.42029,-8.2507 -18.98841,-18.1816 -9.47695,2.1646 -20.0495,3.3542 -29.72369,0.5274 -3.57724,0.1127 -6.66533,-5.3145 -9.74242,-1.6134 -13.38351,4.3093 -30.20945,3.88 -41.20361,-5.9882 -7.76843,6.2926 -18.58487,9.7905 -28.91699,9.4322 -11.59622,-1.6513 -25.93194,-1.6849 -33.57102,-12.1006 -4.00244,-9.7254 -5.16667,-22.1631 0.77567,-31.4921 -2.19441,-6.3047 -4.46267,-12.8791 -4.15759,-19.702 -0.17352,-17.1386 14.67321,-31.2063 31.15092,-33.0436 10.92501,-0.2827 22.94625,0.1255 32.98151,5.2125 4.49486,-0.2208 9.61293,-2.8528 14.64465,-2.2029 8.8672,-1.1992 19.66888,1.6307 23.11498,10.8283 -0.58838,4.6273 5.02906,3.323 7.60157,5.1194 14.07306,-5.1497 32.0664,-5.316 43.99603,5.2436 6.1785,-5.1221 13.9278,-8.745 22.06006,-8.8116 7.6715,1.4039 15.6171,1.268 23.58038,1.0549 0.53804,-3.1097 0.91638,-6.3911 2.23393,-9.339 4.47372,-10.3527 17.91609,-8.8733 27.14847,-8.7186 6.34825,2.5005 12.82508,-0.2122 19.36073,-0.3723 z m 145.32962,34.1915 c 3.2312,-0.027 6.489,0.4168 9.4941,1.6134 10.6084,3.8045 11.0319,17.3668 9.9286,26.8072 0.045,10.5114 -10.3819,16.744 -20.0432,16.3201 -10.0649,-1.3591 -21.9732,2.461 -30.4063,-4.7781 -7.1806,-9.0525 -7.0111,-22.9027 -1.8306,-32.9505 7.2543,-10.095 21.1228,-5.7146 31.4612,-6.9811 0.4598,-0.022 0.9346,-0.027 1.3962,-0.031 z"
         id="path3593"
         sodipodi:nodetypes="cccccccccccccccccccccccccccccccccccccccccccccccccccccccccccccccccccccccccccccccccccccccccccccccccccccccccccccccccccccccccccccccccccccccccccccccccccccccccccccccccccccccccccccccccccccccccccccccccccccccccccccccccccccccccccccccccccccccccccccccccccccccccccccccccccccccccccccccccccccccccccccccccccccccccccccccccccccccccccccccccccccccccccccccccccccccccccccccccccccccccccccccccccccccccccccccccccccccccccccccccccccccccccccccccccccccccccccccccccccccccccccccccccccccccccccccccccccccccccccccccccccccccccccccccccccccccccccccccccccccccccccccccccccccccccccccccccccccccccccccccccccccccccccccccccccccccccccccccccccccccccccccccccccccccccccccccccccccccccccccccccccccccccccccccccccccccccccccccccccccccccccccccccccccccccccccccccccccccccccccccccccccccccccccccccccccccccccccccccccccccccccccccccccccccccccccccccccccccccccccccccccccccccccccccccccccccccccccccccccccc"
         inkscape:connector-curvature="0" />
    </clipPath>
    <inkscape:perspective
       id="perspective10"
       inkscape:persp3d-origin="372.04724 : 350.78739 : 1"
       inkscape:vp_z="744.09448 : 526.18109 : 1"
       inkscape:vp_y="0 : 1000 : 0"
       inkscape:vp_x="0 : 526.18109 : 1"
       sodipodi:type="inkscape:persp3d" />
    <clipPath
       id="SVGID_2_">
      <use
         height="50.435001"
         width="617.21899"
         y="0"
         x="0"
         style="overflow:visible"
         xlink:href="#SVGID_1_"
         overflow="visible"
         id="use9" />
    </clipPath>
    <defs
       id="defs5">
      <rect
         y="0"
         x="0"
         id="SVGID_1_"
         width="616.229"
         height="50.435001" />
    </defs>
    <clipPath
       id="SVGID_2_-7">
      <use
         height="50.435001"
         width="617.21899"
         y="0"
         x="0"
         style="overflow:visible"
         xlink:href="#SVGID_1_"
         overflow="visible"
         id="use9-9" />
    </clipPath>
    <clipPath
       id="clipPath4075">
      <use
         height="50.435001"
         width="617.21899"
         y="0"
         x="0"
         style="overflow:visible"
         xlink:href="#SVGID_1_"
         overflow="visible"
         id="use4077" />
    </clipPath>
    <clipPath
       id="clipPath4079">
      <use
         height="50.435001"
         width="617.21899"
         y="0"
         x="0"
         style="overflow:visible"
         xlink:href="#SVGID_1_"
         overflow="visible"
         id="use4081" />
    </clipPath>
    <clipPath
       id="SVGID_2_-6">
      <use
         height="50.435001"
         width="617.21899"
         y="0"
         x="0"
         style="overflow:visible"
         xlink:href="#SVGID_1_"
         overflow="visible"
         id="use9-8" />
    </clipPath>
    <clipPath
       id="clipPath7333">
      <use
         height="50.435001"
         width="617.21899"
         y="0"
         x="0"
         style="overflow:visible"
         xlink:href="#SVGID_1_"
         overflow="visible"
         id="use7335" />
    </clipPath>
    <clipPath
       id="clipPath7337">
      <use
         height="50.435001"
         width="617.21899"
         y="0"
         x="0"
         style="overflow:visible"
         xlink:href="#SVGID_1_"
         overflow="visible"
         id="use7339" />
    </clipPath>
    <clipPath
       id="SVGID_2_-4">
      <use
         height="50.435001"
         width="617.21899"
         y="0"
         x="0"
         style="overflow:visible"
         xlink:href="#SVGID_1_"
         overflow="visible"
         id="use9-87" />
    </clipPath>
    <clipPath
       id="clipPath3916">
      <use
         height="50.435001"
         width="617.21899"
         y="0"
         x="0"
         style="overflow:visible"
         xlink:href="#SVGID_1_"
         overflow="visible"
         id="use3918" />
    </clipPath>
    <clipPath
       id="clipPath3920">
      <use
         height="50.435001"
         width="617.21899"
         y="0"
         x="0"
         style="overflow:visible"
         xlink:href="#SVGID_1_"
         overflow="visible"
         id="use3922" />
    </clipPath>
  </defs>
  <sodipodi:namedview
     pagecolor="#ffffff"
     bordercolor="#666666"
     borderopacity="1"
     objecttolerance="10"
     gridtolerance="10"
     guidetolerance="10"
     inkscape:pageopacity="0"
     inkscape:pageshadow="2"
     inkscape:window-width="1023"
     inkscape:window-height="1181"
     id="namedview4"
     showgrid="false"
     inkscape:zoom="0.90509668"
     inkscape:cx="220.33362"
     inkscape:cy="123.66022"
     inkscape:window-x="0"
     inkscape:window-y="19"
     inkscape:window-maximized="0"
     inkscape:current-layer="layer3"
     inkscape:snap-bbox="true"
     fit-margin-top="0"
     fit-margin-left="0"
     fit-margin-right="0"
     fit-margin-bottom="0"
     inkscape:showpageshadow="false">
    <inkscape:grid
       type="xygrid"
       id="grid3311"
       empspacing="4"
       visible="true"
       enabled="true"
       snapvisiblegridlinesonly="true"
       originx="-1808px"
       originy="-1184px" />
  </sodipodi:namedview>
  <g
     inkscape:groupmode="layer"
     id="layer1"
     inkscape:label="Graphics"
     style="display:inline"
     transform="translate(0,-56)">
    <g
       style="display:inline"
       transform="matrix(0.89704886,0,0,0.89704886,-575.23593,895.87147)"
       id="g5491" />
    <g
       style="display:inline"
       transform="matrix(0.59582574,0,0,0.59582574,-393.26438,950.74573)"
       id="g10473">
      <path
         sodipodi:type="arc"
         style="fill:#f3eb30;fill-opacity:1;fill-rule:nonzero;stroke:none"
         id="path10475"
         sodipodi:cx="408"
         sodipodi:cy="672"
         sodipodi:rx="96"
         sodipodi:ry="96"
         d="m 504,672 c 0,53.01934 -42.98066,96 -96,96 -53.01934,0 -96,-42.98066 -96,-96 0,-53.01934 42.98066,-96 96,-96 53.01934,0 96,42.98066 96,96 z"
         transform="matrix(7.039334,0,0,7.039334,-1618.3927,-6118.2085)" />
      <path
         transform="matrix(5.7670905,0,0,5.7670905,-1099.3172,-5263.2609)"
         d="m 504,672 c 0,53.01934 -42.98066,96 -96,96 -53.01934,0 -96,-42.98066 -96,-96 0,-53.01934 42.98066,-96 96,-96 53.01934,0 96,42.98066 96,96 z"
         sodipodi:ry="96"
         sodipodi:rx="96"
         sodipodi:cy="672"
         sodipodi:cx="408"
         id="path10477"
         style="fill:#cbdb55;fill-opacity:1;fill-rule:nonzero;stroke:none"
         sodipodi:type="arc" />
      <path
         sodipodi:type="arc"
         style="fill:#86b99c;fill-opacity:1;fill-rule:nonzero;stroke:none"
         id="path10479"
         sodipodi:cx="408"
         sodipodi:cy="672"
         sodipodi:rx="96"
         sodipodi:ry="96"
         d="m 504,672 c 0,53.01934 -42.98066,96 -96,96 -53.01934,0 -96,-42.98066 -96,-96 0,-53.01934 42.98066,-96 96,-96 53.01934,0 96,42.98066 96,96 z"
         transform="matrix(5.0940864,0,0,5.0940864,-824.73162,-4811.0022)" />
      <path
         transform="matrix(3.5625605,0,0,3.5625605,-199.86904,-3781.8167)"
         d="m 504,672 c 0,53.01934 -42.98066,96 -96,96 -53.01934,0 -96,-42.98066 -96,-96 0,-53.01934 42.98066,-96 96,-96 53.01934,0 96,42.98066 96,96 z"
         sodipodi:ry="96"
         sodipodi:rx="96"
         sodipodi:cy="672"
         sodipodi:cx="408"
         id="path10481"
         style="fill:#8990a6;fill-opacity:1;fill-rule:nonzero;stroke:none"
         sodipodi:type="arc" />
      <path
         transform="matrix(2.4326854,0,0,2.4326854,261.11998,-3022.5407)"
         d="m 504,672 c 0,53.01934 -42.98066,96 -96,96 -53.01934,0 -96,-42.98066 -96,-96 0,-53.01934 42.98066,-96 96,-96 53.01934,0 96,42.98066 96,96 z"
         sodipodi:ry="96"
         sodipodi:rx="96"
         sodipodi:cy="672"
         sodipodi:cx="408"
         id="path10483"
         style="fill:#6e4f89;fill-opacity:1;fill-rule:nonzero;stroke:none"
         sodipodi:type="arc" />
      <path
         sodipodi:type="arc"
         style="fill:#553568;fill-opacity:1;fill-rule:nonzero;stroke:none"
         id="path10485"
         sodipodi:cx="408"
         sodipodi:cy="672"
         sodipodi:rx="96"
         sodipodi:ry="96"
         d="m 504,672 c 0,53.01934 -42.98066,96 -96,96 -53.01934,0 -96,-42.98066 -96,-96 0,-53.01934 42.98066,-96 96,-96 53.01934,0 96,42.98066 96,96 z"
         transform="matrix(1.3297797,0,0,1.3297797,711.10551,-2281.388)" />
      <path
         transform="matrix(0.8855549,0,0,0.8855549,892.34928,-1982.869)"
         d="m 504,672 c 0,53.01934 -42.98066,96 -96,96 -53.01934,0 -96,-42.98066 -96,-96 0,-53.01934 42.98066,-96 96,-96 53.01934,0 96,42.98066 96,96 z"
         sodipodi:ry="96"
         sodipodi:rx="96"
         sodipodi:cy="672"
         sodipodi:cx="408"
         id="path10487"
         style="fill:#3b2b63;fill-opacity:1;fill-rule:nonzero;stroke:none"
         sodipodi:type="arc" />
      <path
         sodipodi:type="arc"
         style="fill:#242061;fill-opacity:1;fill-rule:nonzero;stroke:none"
         id="path10489"
         sodipodi:cx="408"
         sodipodi:cy="672"
         sodipodi:rx="96"
         sodipodi:ry="96"
         d="m 504,672 c 0,53.01934 -42.98066,96 -96,96 -53.01934,0 -96,-42.98066 -96,-96 0,-53.01934 42.98066,-96 96,-96 53.01934,0 96,42.98066 96,96 z"
         transform="matrix(0.46759935,0,0,0.46759935,1062.8751,-1702.0029)" />
      <path
         transform="matrix(0.19579901,0,0,0.19579901,1173.7696,-1519.353)"
         d="m 504,672 c 0,53.01934 -42.98066,96 -96,96 -53.01934,0 -96,-42.98066 -96,-96 0,-53.01934 42.98066,-96 96,-96 53.01934,0 96,42.98066 96,96 z"
         sodipodi:ry="96"
         sodipodi:rx="96"
         sodipodi:cy="672"
         sodipodi:cx="408"
         id="path10491"
         style="fill:#23a8de;fill-opacity:1;fill-rule:nonzero;stroke:none"
         sodipodi:type="arc" />
      <path
         inkscape:connector-curvature="0"
         id="path10493"
         d="m 1251.3316,-1381.8251 -0.3498,-0.3049 0,-0.2359 -0.6122,0.4161 -0.2915,0.1961 -0.1829,0.1723 -0.095,-0.1379 -0.5406,-0.7155 0.037,-0.03 0.014,-0.04 -0.024,-0.035 -0.2412,0.2438 -0.2544,0.265 -0.1511,0.1405 -0.1563,0.09 -0.1511,0.03 -0.09,0 -0.096,-0.016 -0.1139,-0.061 -0.082,-0.024 -0.1194,0 -0.2066,0.1033 -0.01,-0.037 c 0,0 -0.01,-0.077 -0.01,-0.087 0,-0.01 -0.03,-0.082 -0.03,-0.082 l -0.01,-0.095 c 0,0 -0.01,-0.1379 -0.01,-0.1458 0,-0.01 -0.037,-0.1537 -0.037,-0.1537 l -0.042,-0.1351 -0.01,-0.098 -0.056,-0.114 -0.1856,0.032 c 0,0 -0.1775,0.01 -0.1855,0.01 -0.01,0 -0.079,0.03 -0.079,0.03 l -0.3075,-0.024 -0.143,0.077 -0.1563,0.079 -0.228,0.1325 -0.2518,0.074 -0.1378,0.035 -0.087,0.01 -0.1352,0.098 -1.1607,0.697 0,0.1113 -0.01,0.1219 -0.035,0.1749 0.04,-0.01 0.1749,-0.037 0.114,-0.026 0.1643,-0.05 0.016,0.1219 -0.114,0.088 -0.159,0.018 -0.2094,0.03 -0.1511,-0.047 -0.114,-0.014 -0.1562,-0.01 -0.122,-0.047 -0.016,-0.04 -0.1166,0.082 -0.1245,0.1246 -0.1193,0.1378 -0.05,0.077 c 0,0 0.053,0.058 0.066,0.063 0.014,0.01 0.042,0.058 0.042,0.058 l -0.014,0.061 -0.074,0.01 -0.1086,-0.066 c 0,0 -0.058,-0.047 -0.058,-0.056 0,-0.01 0.019,-0.1272 0.019,-0.1272 l 0.03,-0.03 0.1086,-0.01 0.061,-0.066 c 0,0 0.095,-0.095 0.098,-0.1034 0.01,-0.01 0.087,-0.093 0.087,-0.093 l -0.093,0.01 -0.01,-0.021 -0.024,-0.042 0.1139,-0.042 -0.1723,-0.066 -0.024,0.015 -0.031,0.05 -0.053,0.053 -0.074,0.031 -0.071,0.031 c 0,0 -0.063,-0.037 -0.071,-0.04 -0.01,-0.01 -0.074,-0.05 -0.074,-0.05 l -0.069,-0.1006 -0.085,-0.1008 -0.035,-0.031 -0.061,-0.026 -0.106,-0.032 -0.072,-0.069 -0.01,-0.056 -0.056,-0.066 -0.037,-0.03 0.01,-0.016 0.037,-0.04 -0.037,-0.026 -0.071,0 0.01,-0.043 0.026,-0.045 0.037,-0.047 0.031,-0.069 -0.01,-0.042 -0.1061,-0.04 -0.015,0.048 0.016,0.1034 -0.024,0.056 -0.071,-0.01 -0.1113,0 0,-0.079 -0.016,-0.096 -0.031,-0.016 -0.1194,0.056 0.016,0.056 0.071,0.063 0,0.047 -0.079,0.031 -0.047,-0.047 -0.1034,-0.024 c 0,0 -0.063,-0.016 -0.088,-0.04 -0.024,-0.025 0.01,-0.1033 0.01,-0.1033 l -0.031,-0.095 -0.016,-0.1194 -0.063,-0.1351 0.047,-0.016 0.1431,-0.1113 0.1193,-0.095 0.087,-0.143 c 0,0 0.04,0.024 0.063,0.024 0.024,0 0.1192,0.024 0.1192,0.024 l 0.047,-0.088 0.1351,-0.1351 0.1034,-0.095 -0.031,-0.1591 0.016,-0.047 0.1033,-0.1272 0.143,-0.1192 0.1273,-0.056 0,-0.071 0.031,-0.063 -0.1034,-0.087 -0.1113,-0.1749 -0.047,-0.024 -0.071,-0.016 -0.063,-0.079 0.031,-0.047 -0.087,-0.087 -0.1113,-0.079 0.016,-0.063 0.039,-0.1172 0.014,-0.1748 -0.014,-0.1193 -0.077,-0.063 0.026,-0.1352 -0.019,-0.1139 -0.021,-0.077 0.1166,-0.2279 c 0,0 0.058,-0.1511 0.063,-0.159 0.01,-0.01 0.047,-0.1351 0.047,-0.1431 0,-0.01 0,-0.077 0,-0.077 l -0.01,-0.1085 0.3074,-0.098 0.2331,-0.3287 0.2545,-0.3657 0.2995,-0.4347 0.2252,-0.2941 0.2227,-0.2756 c 0,0 0.069,-0.066 0.069,-0.074 0,-0.01 0.066,-0.093 0.066,-0.093 l 0.04,-0.014 -0.3339,-0.1723 -0.1007,-0.042 -0.1856,-0.114 -0.1881,-0.095 -0.066,-0.01 -0.03,-0.079 -0.061,-0.047 -0.098,0.019 -0.2385,0.077 c 0,0 -0.2121,0.063 -0.2227,0.063 -0.01,0 -0.1617,0.021 -0.1617,0.021 l -0.1881,0.016 0.021,-0.1801 0.01,-0.1378 0,-0.2465 0.01,-0.2227 0.016,-0.1324 0.074,-0.204 0.026,-0.122 0.016,-0.2094 0.021,-0.1166 0.03,-0.2358 0.071,-0.3101 0.042,-0.2093 0.071,0.053 c 0,0 0.058,0.074 0.066,0.077 0.01,0.01 0.1087,0.04 0.1087,0.04 l 0.1246,0.024 c 0,0 0.095,0.01 0.1033,0.01 0.01,0 0.04,-0.016 0.04,-0.016 l 0.035,-0.01 0.016,-0.045 0,-0.037 0.035,-0.047 0,-0.058 -0.024,-0.1749 -0.047,-0.1167 0.053,-0.074 0.01,-0.1961 0.063,-0.1166 0.037,-0.159 0.053,-0.069 0,-0.1166 0.021,-0.042 -0.01,-0.2333 c 0,0 -0.063,-0.1801 -0.085,-0.2119 -0.021,-0.031 -0.053,-0.106 -0.053,-0.106 l -0.026,-0.031 -0.212,0.1113 -0.1537,0.069 -0.074,0 c 0,0 -0.1273,0.063 -0.1484,0.063 -0.021,0 -0.058,-0.074 -0.058,-0.074 l -0.037,-0.1114 -0.063,-0.01 0.021,-0.1591 -0.042,-0.021 0.01,-0.053 0.031,-0.026 0.085,0.042 0.159,-0.058 0.053,-0.09 0.2066,-0.042 0.1697,-0.1114 0.1538,-0.2384 c 0,0 0.074,-0.1378 0.095,-0.1484 0.021,-0.01 0.1696,-0.063 0.1696,-0.063 l 0.1378,-0.022 0.1007,0.09 0.047,0.016 0.069,0 0.09,0.069 0.063,0.026 0.095,0.01 0.085,0.016 0.063,0.021 0.1007,0 0.063,0.074 0.09,0.026 0.085,0.069 0.1059,0.053 0.1537,0.01 0.1749,0.074 0.1538,0.074 0.032,-0.1006 0.2067,-0.01 0.1324,0.042 0.047,-0.1802 0,-0.096 -0.074,-0.106 -0.1166,-0.09 -0.1432,-0.106 -0.2031,-0.2439 -0.1201,-0.1625 -0.014,-0.1202 0.078,-0.063 0.095,-0.07 0.085,-0.2015 0.081,-0.1803 0.057,-0.1342 0.05,-0.1165 0.074,-0.085 0.057,-0.1767 0.039,-0.1413 0.01,-0.1413 0.1944,-0.021 0.01,0.031 0.152,0.01 0.1308,-0.022 0.1025,0 c 0,0 0.1025,-0.021 0.1165,-0.021 0.014,0 0.067,-0.031 0.081,-0.031 0.014,0 0.085,0.046 0.095,0.046 0.01,0 0.067,0.01 0.067,0.01 l 0.057,-0.022 0.1554,0.01 0.1379,-0.021 c 0,0 0.1165,-0.022 0.1448,-0.014 0.028,0.01 0.1414,0.042 0.1308,0.039 -0.01,-0.01 -0.01,-0.3286 -0.01,-0.3286 l -0.014,-0.1555 -0.039,-0.1096 -0.06,-0.1165 -0.01,-0.1025 c 0,0 0.1909,0.046 0.205,0.046 0.014,0 0.1096,-0.01 0.1096,-0.01 l 0.085,-0.031 0.1202,0.01 c 0,0 0.1483,-0.042 0.1625,-0.042 0.014,0 0.085,-0.025 0.085,-0.025 l 0.014,-0.6751 -0.1272,0 0.025,-0.4982 0.212,0.053 0.1519,0.014 0.2049,-0.01 0.1379,-0.022 0.1695,-0.018 0.1025,0.1166 -0.3286,0.2579 0.311,0.5513 0.031,0.01 c 0,0 -0.028,0.1838 -0.028,0.1944 0,0.01 -0.039,0.063 -0.039,0.063 l 0.01,0.088 -0.01,0.1095 0.099,0.205 0.028,0.1096 0.01,0.053 -0.2402,0.1448 0.2226,-0.031 0.1307,-0.025 c 0,0 0.1732,0.07 0.1944,0.07 0.022,0 0.1731,0.01 0.1731,0.01 l 0.3074,0.092 0.2121,0.099 0.106,-0.042 0.1555,-0.035 0.2544,-0.024 0.022,0.06 0.1308,-0.057 0.085,0.014 0.085,-0.053 0.085,-0.05 0.166,-0.06 0.05,-0.014 0.063,-0.088 0.042,-0.01 0.1025,-0.06 0.074,-0.092 -0.046,-0.085 0.1025,-0.1873 0.014,0.028 0.05,-0.05 0.057,-0.031 -0.014,-0.028 -0.035,-0.014 0.07,-0.046 0.078,0.01 0.085,-0.042 0.035,-0.05 0.022,-0.1131 -0.01,-0.1237 0.078,-0.1024 0.042,-0.1838 0.014,-0.05 0.081,0 0.01,-0.032 0.024,-0.039 0.2085,0.1908 0.1307,0.074 0.063,0.063 c 0,0 0.1449,-0.078 0.1554,-0.063 0.01,0.014 0.042,0.053 0.042,0.053 l 0.053,0 0,0.092 c 0,0 0.1202,0.1272 0.1307,0.1342 0.01,0.01 0.2403,0.145 0.2403,0.145 l 0.1414,-0.1202 0.1307,0.014 0.063,-0.063 -0.035,-0.159 0.01,-0.2121 0.2191,-0.07 0.01,-0.2191 0.1024,-0.035 c 0,0 0.1168,-0.024 0.1273,-0.024 0.01,0 0.1661,-0.01 0.1661,-0.01 l 0.01,0.053 c 0,0 0.265,0.028 0.272,0.018 0.01,-0.01 0.092,-0.025 0.092,-0.039 0,-0.014 0.021,-0.088 0.021,-0.088 l 0.078,-0.042 0.057,-0.039 0.1061,-0.018 0.046,-0.085 0.088,-0.046 -0.014,-0.1166 -0.046,-0.028 -0.3639,-0.025 c 0,0 -0.2934,-0.2438 -0.3216,-0.2438 -0.028,0 -0.1554,-0.057 -0.1554,-0.057 l 0.325,-0.3851 0.2297,0.074 0.1307,-0.212 0.039,0.01 0.1448,-0.2297 0.053,0.035 0.1024,-0.088 0.032,0.043 c 0,0 -0.1555,0.3075 -0.152,0.318 0.01,0.01 0.039,0.1096 0.039,0.1096 l 0.417,-0.2332 -0.078,0.7172 0.2296,0.2333 0.4452,0.2403 0.099,0.032 0.2721,0.2262 0.2261,-0.1061 0.06,0.1131 0.07,0.01 -0.024,0.4276 -0.099,0.47 -0.4099,0.2685 0.01,0.3498 -0.05,0.032 -0.1696,0.4982 -0.043,0.3675 0.085,-0.025 0.3887,0.7491 0.5229,-0.074 0.1273,0.022 0.1872,0.042 0.2509,0.078 0.3146,0.085 -0.01,0.035 0.205,0.1059 0.1873,0.1484 0.1731,0.1343 0.113,0.1379 0.095,0.1413 0.07,0.1519 0.2156,-0.085 0.074,0.053 0.039,0.1095 0.1166,-0.01 0.085,0.2122 0.01,0.1342 0.046,0.1096 0.01,0.1095 0.018,0.106 0.07,0.113 0.07,0.1061 -0.018,0.1236 0,0.1132 -0.018,0.1201 1.0212,0.2438 0.3039,0.035 0.2085,0.01 0.311,0.046 0.021,0.067 -0.1166,0.1943 -0.085,-0.01 c 0,0 -0.014,0.031 -0.028,0.031 -0.014,0 -0.053,-0.018 -0.053,-0.018 0,0 -0.039,0.018 -0.05,0.018 -0.01,0 -0.1096,-0.01 -0.1096,-0.01 l 0.05,0.212 -0.025,0.032 0.046,0.2084 0.1308,-0.014 0.2685,-0.035 0.2757,0.042 0.1837,-0.01 0.258,-0.031 0.07,0.2262 -0.1626,0.1555 -0.1342,0.1096 -0.1308,0.1095 -0.1413,0.1378 -0.152,0.1802 -0.1413,0.2403 -0.063,0.1873 -0.05,0.1732 -0.042,0.2261 -0.035,0.1979 -0.025,0.1661 -0.043,0.063 0.1979,0.063 -0.1343,0.2332 -0.3322,0.5159 -0.024,0.3039 0.088,0.05 c 0,0 -0.159,0.2404 -0.1485,0.2404 0.01,0 0.1343,0.039 0.1343,0.039 l 0.07,-0.078 0.152,0.05 0.01,0.113 0.018,0.01 -0.01,0.1096 0.046,0.01 0.01,-0.024 -0.022,-0.1097 0.074,-0.014 -0.01,-0.2755 0.1131,-0.01 c 0,0 0.081,-0.088 0.092,-0.095 0.01,-0.01 0.1591,-0.067 0.1591,-0.067 l 0.1236,-0.078 c 0,0 0.1307,-0.1379 0.1449,-0.1379 0.014,0 0.1555,0.018 0.1555,0.018 l 0.1802,0.085 0.092,0.01 0.1377,0.095 0.1202,0.067 c 0,0 0.06,0.01 0.081,0.01 0.021,0 0.1201,-0.035 0.1201,-0.035 l 0.1024,0.063 0.1697,0.1201 0.1661,0.088 0.067,0.1131 c 0,0 0.092,0.06 0.1025,0.063 0.01,0.01 0.1095,0.028 0.1095,0.028 l 0.2261,0.024 0.1025,0.018 c 0,0 0.07,0.1766 0.07,0.1872 0,0.01 0.01,0.1273 0.01,0.1273 l 0.057,0.095 -0.01,0.078 0,0.053 0.2367,0.01 0.025,-0.095 -0.01,-0.1095 -0.021,-0.095 -0.085,-0.018 -0.042,-0.2509 -0.074,-0.113 -0.042,-0.106 0.063,0.01 0.1272,0.1131 0.1661,0.106 c 0,0 0.1166,0.067 0.1272,0.067 0.01,0 0.092,0 0.092,0 l 0.1237,0.1556 0.095,0.1907 c 0,0 0.1202,0.1201 0.1308,0.1201 0.01,0 0.1166,0.1202 0.1166,0.1202 0,0 0.067,0.081 0.085,0.085 0.018,0.01 0.1732,0.01 0.1732,0.01 l 0.028,-0.025 0.035,0.01 0.01,0.031 c 0,0 0.2615,0.053 0.2756,0.053 0.014,0 0.05,-0.031 0.05,-0.031 0,0 0.2261,0.078 0.2368,0.078 0.01,0 0.1448,0.074 0.1448,0.074 l 0.022,0.042 0.035,-0.021 -0.06,0.1661 0.1095,0.018 -0.042,0.2509 0.1978,0.024 -0.057,0.1025 -0.2014,-0.01 0.046,-0.3003 -0.1907,0.035 -0.2192,0.1978 -0.025,0.2934 -0.1449,0.01 -0.025,0.01 -0.1484,0 -0.1342,-0.05 -0.1449,-0.088 -0.1202,-0.085 -0.035,-0.031 0.01,0.07 0.1096,0.088 0.1201,0.067 0.092,0.025 0.099,0.021 0.1096,0.01 0.106,0.025 -0.01,0.1873 0.092,0.042 -0.021,0.085 -0.1343,0.021 -0.1944,0.3781 0.01,0.07 -0.022,0.067 -0.025,0.099 0.042,0.081 0.06,0.081 0.07,0.095 -0.01,0.042 0.1166,0.06 0.046,0.07 0.018,0.092 -0.088,0.067 -0.031,0.1377 -0.01,0.088 -0.1377,0.1449 -0.039,-0.01 -0.031,0.01 -0.031,0 -0.063,0.035 -0.06,0.06 -0.095,0.018 -0.042,-0.025 -0.07,0.01 -0.042,-0.042 -0.085,0.057 -0.063,0.067 -0.057,0.035 -0.014,0.05 -0.046,0.039 -0.063,0.042 -0.057,0.031 -0.05,0.053 -0.046,0.01 -0.113,0.1801 -0.01,-0.06 -0.043,-0.01 -0.014,0.1025 -0.074,0.088 -0.057,0.085 -0.063,0.067 -0.057,0.06 -0.063,0 -0.035,0.018 -0.028,0.074 0.053,0.057 0.057,-0.018 0.2013,0.1165 0.1661,-0.028 -0.063,0.2193 0.095,0.01 0.025,0.018 -0.01,0.06 -0.042,0.092 -0.046,0.1131 -0.07,0.1378 -0.078,0.099 0.021,0.063 c 0,0 -0.064,0.01 -0.053,0.014 0.01,0.01 0.022,0.031 0.022,0.031 l -0.057,-0.022 -0.053,0.022 -0.053,0.01 -0.1201,-0.078 -0.081,-0.035 -0.1165,0.042 -0.1555,0.1059 -0.106,0.028 -0.042,0.1061 -0.018,0.035 -0.043,0.025 -0.046,0.099 -0.018,0.2049 0.01,0.088 c 0,0 -0.081,0.01 -0.081,0.022 0,0.01 -0.021,0.07 -0.021,0.07 l -0.018,0.085 -0.032,0.07 -0.081,0.039 -0.01,0.07 -0.07,0.031 -0.01,0.1025 -0.021,0.085 0.01,0.07 -0.042,0.05 -0.039,0.06 -0.06,0.1132 -0.01,0.092 c 0,0 0.01,0.1202 0.01,0.1343 0,0.014 -0.042,0.067 -0.042,0.067 l -0.078,0.021 -0.085,-0.018 -0.067,-0.046 -0.043,-0.01 c 0,0 -0.1024,-0.1308 -0.1201,-0.1343 -0.018,-0.01 -0.1343,-0.205 -0.1343,-0.205 l -0.021,-0.1907 -0.01,-0.3428 c 0,0 0.01,-0.2014 0.01,-0.212 0,-0.01 0.067,-0.1414 0.067,-0.1414 l 0.1626,-0.1978 c 0,0 0.092,-0.1025 0.095,-0.1202 0.01,-0.018 0,-0.1096 0,-0.1096 l -0.042,-0.1342 -0.1625,-0.031 0.025,-0.1555 -0.046,-0.2579 -0.3251,0.095 -0.205,-0.2862 -0.7632,0.4981 0.018,-0.127 -0.018,-0.067 -0.021,-0.039 -0.018,-0.018 0.035,-0.06 -0.031,-0.1025 -0.078,-0.053 c 0,0 -0.028,-0.074 -0.039,-0.078 -0.01,-0.01 -0.063,-0.039 -0.063,-0.039 l -0.063,-0.081 -0.1095,-0.021 -0.053,-0.092 0.01,-0.046 -0.01,-0.05 -0.039,-0.014 -0.022,-0.053 0.022,-0.067 0.01,-0.053 -0.025,-0.05 -0.042,-0.039 -0.2792,0.1449 -0.1732,0.05 c 0,0 -0.1483,0.057 -0.1625,0.057 -0.014,0 -0.106,0.031 -0.106,0.031 0,0 -0.1166,0.067 -0.1272,0.067 -0.01,0 -0.1661,0.053 -0.1661,0.053 l -0.1696,0 c 0,0 -0.166,-0.01 -0.1837,-0.01 -0.018,0 -0.1555,0.01 -0.1555,0.01 l -0.1485,0.01 c 0,0 -0.113,0 -0.1236,0 -0.01,0 -0.2721,0.01 -0.2721,0.01 l -0.01,-0.1097 0,-0.1271 0.01,-0.106 0.035,-0.1625 0.022,-0.1167 0.025,-0.06 c 0,0 -0.1237,0.081 -0.138,0.081 -0.014,0 -0.1483,0.099 -0.1483,0.099 0,0 -0.2156,-0.081 -0.2368,-0.092 -0.021,-0.01 -0.1871,-0.095 -0.1871,-0.095 0,0 -0.074,-0.025 -0.088,-0.025 -0.014,0 -0.092,0.046 -0.1096,0.05 -0.018,0.01 -0.2119,0.063 -0.2119,0.063 l -0.2157,0.05 -0.2261,0.057 -0.3003,0.1131 -0.2333,0.078 -0.07,-0.3322 -0.1096,-0.2508 c 0,0 -0.3039,-0.7916 -0.3392,-0.7951 -0.035,-0.01 -0.1201,-0.05 -0.1484,-0.05 -0.028,0 -0.1767,0.039 -0.1767,0.039 0,0 -0.4452,0.2579 -0.4594,0.2615 -0.014,0.01 -0.2615,0.1343 -0.2615,0.1343 0,0 -0.2261,0.1448 -0.2543,0.1414 -0.028,-0.01 -0.4347,0.1554 -0.4347,0.1554 l -0.01,0.1626 0.4028,1.2226 -0.028,0.1342 -0.1873,0.4912 c 0,0 -0.4983,-0.021 -0.5406,-0.014 -0.042,0.01 -0.6184,-0.018 -0.6184,-0.018 l -0.078,-0.6255 -0.6078,0.022 c 0,0 0.035,-0.3003 0.025,-0.3039 -0.01,-0.01 -0.3674,-0.1908 -0.3674,-0.1908 l -0.3658,-0.2562 0,0 z"
         style="fill:#ffffff;fill-opacity:1;stroke:none" />
      <path
         sodipodi:nodetypes="sssccssscccsssccssscss"
         inkscape:connector-curvature="0"
         id="path10495"
         d="m 1233.9283,-1404.3995 c -2.2768,0.084 -4.3526,0.7275 -6.0331,1.8601 -2.2407,1.5103 -3.7389,3.9595 -3.8915,6.7612 -0.2806,5.1517 2.8227,8.4334 5.7211,9.9674 l 1.8294,-3.4632 c -2.0799,-1.1007 -3.8387,-2.653 -3.6406,-6.29 0.087,-1.5927 0.8339,-2.8244 2.1721,-3.7263 1.3382,-0.9021 3.3146,-1.4084 5.7027,-1.1137 4.7763,0.5894 11.2078,4.4192 16.5389,14.2689 l 0.012,0.025 0.019,0.025 c 4.2348,7.2702 10.8904,11.2126 16.7225,12.3413 2.916,0.5645 5.6541,0.4622 7.9114,-0.471 2.2574,-0.9334 4.0529,-3.0061 4.1792,-5.5926 0.2123,-4.3503 -2.2238,-7.1851 -4.5401,-8.4621 l -1.8907,3.4325 c 1.4369,0.7923 2.6664,1.8568 2.5209,4.8399 -0.052,1.0804 -0.5036,1.637 -1.7683,2.1599 -1.2647,0.523 -3.3191,0.7051 -5.6659,0.2509 -4.6938,-0.9084 -10.4443,-4.2181 -14.0853,-10.469 -5.7534,-10.5991 -13.1109,-15.4477 -19.476,-16.2331 -0.7969,-0.098 -1.5783,-0.1379 -2.3373,-0.1102 z"
         style="font-size:medium;font-style:normal;font-variant:normal;font-weight:normal;font-stretch:normal;text-indent:0;text-align:start;text-decoration:none;line-height:normal;letter-spacing:normal;word-spacing:normal;text-transform:none;direction:ltr;block-progression:tb;writing-mode:lr-tb;text-anchor:start;baseline-shift:baseline;color:#000000;fill:#f3eb30;fill-opacity:1;stroke:none;stroke-width:20;marker:none;visibility:visible;display:inline;overflow:visible;enable-background:accumulate;font-family:Sans;-inkscape-font-specification:Sans" />
      <path
         inkscape:connector-curvature="0"
         id="path10497"
         d="m 1225.0561,-1399.4432 c -0.6066,1.1023 -0.9805,2.3446 -1.0524,3.665 -0.2806,5.1517 2.8227,8.4334 5.7211,9.9674 2.3852,1.2624 4.7345,1.6327 5.5007,1.7255 -0.2377,-1.1933 -0.3671,-2.4265 -0.3671,-3.6896 0,-0.1171 0.01,-0.2322 0.01,-0.3489 -0.8371,-0.1713 -2.0905,-0.5046 -3.3103,-1.1502 -2.0183,-1.0683 -3.7342,-2.5605 -3.6529,-5.9718 l -2.8452,0 0,-4.1974 z"
         style="font-size:medium;font-style:normal;font-variant:normal;font-weight:normal;font-stretch:normal;text-indent:0;text-align:start;text-decoration:none;line-height:normal;letter-spacing:normal;word-spacing:normal;text-transform:none;direction:ltr;block-progression:tb;writing-mode:lr-tb;text-anchor:start;baseline-shift:baseline;color:#000000;fill:#f3eb30;fill-opacity:1;stroke:none;stroke-width:20;marker:none;visibility:visible;display:inline;overflow:visible;enable-background:accumulate;font-family:Sans;-inkscape-font-specification:Sans" />
      <path
         sodipodi:nodetypes="cscssssccssssc"
         inkscape:connector-curvature="0"
         id="path10499"
         d="m 1272.3599,-1389.6288 c 0.06,0.6098 0.092,1.2282 0.092,1.8539 0,0.7121 -0.046,1.4132 -0.1223,2.1048 0.5765,0.1046 1.5127,0.337 2.4107,0.8322 1.4369,0.7922 2.6665,1.8567 2.5209,4.8398 -0.052,1.0804 -0.5036,1.6371 -1.7682,2.16 -1.2648,0.5229 -3.3191,0.7051 -5.666,0.2508 -0.1099,-0.021 -0.2194,-0.043 -0.3304,-0.067 -0.7758,1.212 -1.6855,2.3276 -2.7106,3.3286 0.7734,0.2406 1.5416,0.4355 2.2945,0.5812 2.916,0.5644 5.6542,0.4621 7.9115,-0.4711 2.2574,-0.9333 4.0529,-3.0061 4.1791,-5.5925 0.2123,-4.3504 -2.2237,-7.1851 -4.5401,-8.4621 -1.7856,-0.9846 -3.5499,-1.2763 -4.2709,-1.3584 z"
         style="font-size:medium;font-style:normal;font-variant:normal;font-weight:normal;font-stretch:normal;text-indent:0;text-align:start;text-decoration:none;line-height:normal;letter-spacing:normal;word-spacing:normal;text-transform:none;direction:ltr;block-progression:tb;writing-mode:lr-tb;text-anchor:start;baseline-shift:baseline;color:#000000;fill:#f3eb30;fill-opacity:1;stroke:none;stroke-width:20;marker:none;visibility:visible;display:inline;overflow:visible;enable-background:accumulate;font-family:Sans;-inkscape-font-specification:Sans" />
    </g>
    <rect
       style="fill:#242061;fill-opacity:1;fill-rule:nonzero;stroke:none;display:inline"
       id="rect3081"
       width="398"
       height="117.96808"
       x="0"
       y="146.03192" />
    <text
       sodipodi:linespacing="125%"
       id="text5937"
       y="191.06512"
       x="15.079849"
       style="font-size:25.07556915px;font-style:normal;font-variant:normal;font-weight:600;font-stretch:normal;text-align:start;line-height:125%;writing-mode:lr-tb;text-anchor:start;fill:#ffffff;fill-opacity:1;fill-rule:nonzero;stroke:none;font-family:URW Gothic L;-inkscape-font-specification:URW Gothic L Semi-Bold"
       xml:space="preserve"><tspan
         style="font-size:24px"
         y="191.06512"
         x="15.079849"
         sodipodi:role="line"
         id="tspan4134">GLOBAL GAME JAM BERLIN</tspan><tspan
         style="font-size:24px"
         id="tspan5941"
         y="221.06512"
         x="15.079849"
         sodipodi:role="line" /></text>
    <text
       xml:space="preserve"
       style="font-size:18.87489128px;font-style:normal;font-variant:normal;font-weight:600;font-stretch:normal;text-align:start;line-height:125%;writing-mode:lr-tb;text-anchor:start;fill:#ffffff;fill-opacity:1;fill-rule:nonzero;stroke:none;display:inline;font-family:URW Gothic L;-inkscape-font-specification:URW Gothic L Semi-Bold"
       x="16.685436"
       y="248"
       id="text3260"
       sodipodi:linespacing="125%"><tspan
         sodipodi:role="line"
         id="tspan3262"
         x="16.685436"
         y="248">24-26 JAN 2014</tspan></text>
  </g>
  <g
     inkscape:groupmode="layer"
     id="layer3"
     inkscape:label="borders"
     style="display:none"
     transform="translate(0,-56)">
    <rect
       y="56"
       x="0"
       height="208"
       width="398"
       id="rect11436"
       style="opacity:0.5;fill:#3b2b63;fill-opacity:1;fill-rule:nonzero;stroke:none;display:inline"
       inkscape:export-filename="./m2c.png"
       inkscape:export-xdpi="180"
       inkscape:export-ydpi="180" />
  </g>
</svg>
